<svg width="23" height="21" viewBox="0 0 23 21" fill="none" xmlns="http://www.w3.org/2000/svg">
<path d="M11.2504 0.373047C12.2524 0.372994 13.2165 0.684472 13.9448 1.24359C14.6732 1.8027 15.1106 2.56706 15.1673 3.37987L15.1733 3.56032H21.5105C21.7398 3.56038 21.9606 3.63117 22.1282 3.75839C22.2958 3.88562 22.3977 4.05979 22.4134 4.24571C22.429 4.43163 22.3572 4.61544 22.2124 4.76001C22.0677 4.90457 21.8608 4.9991 21.6336 5.0245L21.5105 5.03137H20.5496L19.0046 17.8001C18.9272 18.4366 18.5738 19.0301 18.0075 19.4746C17.4413 19.919 16.699 20.1855 15.9133 20.2263L15.7008 20.2322H6.79989C6.01223 20.2322 5.25024 20.0046 4.65011 19.5901C4.04997 19.1757 3.65079 18.6013 3.5239 17.9697L3.49614 17.7991L1.94988 5.03137H0.990263C0.771497 5.03136 0.560134 4.96699 0.395262 4.85017C0.23039 4.73334 0.123163 4.57196 0.0934104 4.39587L0.0849609 4.29584C0.0849702 4.1181 0.164196 3.94638 0.307988 3.81243C0.451779 3.67847 0.650408 3.59136 0.867142 3.56718L0.990263 3.56032H7.32738C7.32738 2.715 7.74069 1.90431 8.47639 1.30658C9.21209 0.708848 10.2099 0.373047 11.2504 0.373047V0.373047ZM18.7306 5.03137H3.76894L5.2983 17.6549C5.33216 17.9366 5.48494 18.2001 5.7307 18.4006C5.97646 18.6012 6.30006 18.7265 6.64659 18.7553L6.79989 18.7612H15.7008C16.4251 18.7612 17.0395 18.3444 17.1795 17.7785L17.2036 17.6549L18.7294 5.03137H18.7306ZM13.3627 7.72829C13.5815 7.7283 13.7929 7.79266 13.9577 7.90949C14.1226 8.02631 14.2298 8.18769 14.2596 8.36378L14.268 8.46381V15.3287C14.268 15.5151 14.1808 15.6944 14.0242 15.8306C13.8676 15.9668 13.6533 16.0496 13.4244 16.0623C13.1956 16.075 12.9694 16.0167 12.7914 15.899C12.6135 15.7814 12.4971 15.6134 12.4659 15.4287L12.4574 15.3287V8.46381C12.4574 8.26874 12.5528 8.08166 12.7226 7.94372C12.8924 7.80578 13.1226 7.72829 13.3627 7.72829ZM9.13798 7.72829C9.35675 7.7283 9.56811 7.79266 9.73299 7.90949C9.89786 8.02631 10.0051 8.18769 10.0348 8.36378L10.0433 8.46381V15.3287C10.0432 15.5151 9.95608 15.6944 9.79949 15.8306C9.6429 15.9668 9.42853 16.0496 9.19969 16.0623C8.97085 16.075 8.74461 16.0167 8.56668 15.899C8.38875 15.7814 8.2724 15.6134 8.24113 15.4287L8.23268 15.3287V8.46381C8.23268 8.26874 8.32806 8.08166 8.49784 7.94372C8.66762 7.80578 8.89788 7.72829 9.13798 7.72829ZM11.2504 1.8441C10.7202 1.84411 10.2095 2.00608 9.81951 2.29784C9.42954 2.58961 9.18885 2.98985 9.14523 3.4191L9.13798 3.56032H13.3627C13.3627 3.10515 13.1402 2.66862 12.744 2.34677C12.3479 2.02491 11.8106 1.8441 11.2504 1.8441Z" fill="black"/>
</svg>
