<svg width="22" height="22" viewBox="0 0 22 22" fill="none" xmlns="http://www.w3.org/2000/svg">
<path fill-rule="evenodd" clip-rule="evenodd" d="M9.79068 2.54224C5.78591 2.54224 2.54156 5.7939 2.54156 9.80235C2.54156 13.8108 5.78591 17.0625 9.79068 17.0625C11.3374 17.0625 12.7707 16.5774 13.9474 15.7511L13.9537 15.7574L17.2032 19.0124L17.7331 19.5432L18.7947 18.4835L18.2648 17.9527L15.0822 14.7647C16.2964 13.4664 17.0398 11.7211 17.0398 9.80235C17.0398 5.7939 13.7955 2.54224 9.79068 2.54224ZM4.04156 9.80235C4.04156 6.61993 6.61673 4.04224 9.79068 4.04224C12.9646 4.04224 15.5398 6.61993 15.5398 9.80235C15.5398 12.9848 12.9646 15.5625 9.79068 15.5625C6.61673 15.5625 4.04156 12.9848 4.04156 9.80235Z" fill="black"/>
</svg>
