<?xml version="1.0" encoding="UTF-8" standalone="no"?>
<svg
   xmlns:dc="http://purl.org/dc/elements/1.1/"
   xmlns:cc="http://creativecommons.org/ns#"
   xmlns:rdf="http://www.w3.org/1999/02/22-rdf-syntax-ns#"
   xmlns:svg="http://www.w3.org/2000/svg"
   xmlns="http://www.w3.org/2000/svg"
   xmlns:sodipodi="http://sodipodi.sourceforge.net/DTD/sodipodi-0.dtd"
   xmlns:inkscape="http://www.inkscape.org/namespaces/inkscape"
   width="22"
   height="20"
   viewBox="0 0 22 20"
   fill="none"
   version="1.1"
   id="svg4"
   sodipodi:docname="camara.svg"
   inkscape:version="1.0.2 (e86c870879, 2021-01-15, custom)">
  <metadata
     id="metadata10">
    <rdf:RDF>
      <cc:Work
         rdf:about="">
        <dc:format>image/svg+xml</dc:format>
        <dc:type
           rdf:resource="http://purl.org/dc/dcmitype/StillImage" />
      </cc:Work>
    </rdf:RDF>
  </metadata>
  <defs
     id="defs8" />
  <sodipodi:namedview
     pagecolor="#ffffff"
     bordercolor="#666666"
     borderopacity="1"
     objecttolerance="10"
     gridtolerance="10"
     guidetolerance="10"
     inkscape:pageopacity="0"
     inkscape:pageshadow="2"
     inkscape:window-width="1280"
     inkscape:window-height="961"
     id="namedview6"
     showgrid="false"
     inkscape:zoom="36.75"
     inkscape:cx="11"
     inkscape:cy="10"
     inkscape:window-x="-8"
     inkscape:window-y="-8"
     inkscape:window-maximized="1"
     inkscape:current-layer="svg4" />
  <path
     d="M19.9449 3.63964H16.5161L15.6992 1.35041C15.6428 1.19376 15.5394 1.05836 15.4031 0.962695C15.2668 0.867031 15.1043 0.815771 14.9378 0.815918H7.20284C6.86249 0.815918 6.55742 1.03022 6.44397 1.35041L5.62459 3.63964H2.19578C1.08142 3.63964 0.178833 4.54222 0.178833 5.65659V17.1532C0.178833 18.2675 1.08142 19.1701 2.19578 19.1701H19.9449C21.0593 19.1701 21.9618 18.2675 21.9618 17.1532V5.65659C21.9618 4.54222 21.0593 3.63964 19.9449 3.63964ZM20.1466 17.1532C20.1466 17.2641 20.0558 17.3549 19.9449 17.3549H2.19578C2.08485 17.3549 1.99408 17.2641 1.99408 17.1532V5.65659C1.99408 5.54566 2.08485 5.45489 2.19578 5.45489H6.90282L7.33395 4.24977L7.9113 2.63117H14.2269L14.8042 4.24977L15.2353 5.45489H19.9449C20.0558 5.45489 20.1466 5.54566 20.1466 5.65659V17.1532ZM11.0703 7.06845C8.84161 7.06845 7.03645 8.87361 7.03645 11.1023C7.03645 13.3311 8.84161 15.1362 11.0703 15.1362C13.2991 15.1362 15.1042 13.3311 15.1042 11.1023C15.1042 8.87361 13.2991 7.06845 11.0703 7.06845ZM11.0703 13.5227C9.73411 13.5227 8.65 12.4386 8.65 11.1023C8.65 9.76611 9.73411 8.682 11.0703 8.682C12.4066 8.682 13.4907 9.76611 13.4907 11.1023C13.4907 12.4386 12.4066 13.5227 11.0703 13.5227Z"
     fill="black"
     id="path2"
     style="fill:#c877ef;fill-opacity:1" />
</svg>
