<svg width="24" height="20" viewBox="0 0 24 20" fill="none" xmlns="http://www.w3.org/2000/svg">
<path d="M21.562 4.18976C20.2338 3.84922 18.3608 6.33527 18.3608 6.33527V12.6696C18.3608 12.6696 20.2338 15.3599 21.562 14.9854C22.8903 14.6109 22.8903 14.0659 22.8903 14.0659V5.41575C22.8903 5.41575 22.8903 4.5303 21.562 4.18976Z" stroke="black" stroke-width="2"/>
<path d="M3.00602 18.6549H3.20144M3.20144 18.6549H16.9303C18.0086 18.6445 18.1866 17.9344 18.1516 16.0632V2.27321C18.1468 1.33601 17.8273 1.01046 16.3927 1.00178H3.00602C1.51742 0.975319 1.06976 1.23721 1.00273 2.27321L1.0028 16.0632C0.959202 18.1179 1.41927 18.5729 2.76172 18.6549H3.20144Z" stroke="black" stroke-width="2"/>
</svg>
