<svg width="17" height="22" viewBox="0 0 17 22" fill="none" xmlns="http://www.w3.org/2000/svg">
<path d="M2.76357 1.1253L4.22226 0.685931C4.88628 0.485602 5.6005 0.533763 6.23161 0.821425C6.86272 1.10909 7.36758 1.61659 7.65194 2.24919L8.55967 4.26851C8.80426 4.81249 8.8724 5.41941 8.75452 6.00409C8.63664 6.58878 8.33865 7.12188 7.90238 7.52859L6.31627 9.00749C6.29667 9.0258 6.28059 9.04754 6.26882 9.07164C6.10274 9.41083 6.35494 10.3168 7.14492 11.6859C8.03595 13.2289 8.72399 13.8387 9.04297 13.7447L11.1247 13.1076C11.6948 12.9335 12.3051 12.9422 12.87 13.1324C13.4349 13.3226 13.9262 13.6848 14.2749 14.1683L15.5649 15.9547C15.9699 16.5156 16.1575 17.2045 16.0928 17.8933C16.0282 18.5822 15.7157 19.2241 15.2134 19.6999L14.1036 20.7499C13.7176 21.1155 13.249 21.3823 12.7376 21.5275C12.2262 21.6727 11.6873 21.692 11.1669 21.5839C8.07637 20.9406 5.30749 18.4521 2.83651 14.1727C0.364645 9.89061 -0.406001 6.24389 0.586963 3.24479C0.75318 2.74269 1.03781 2.28797 1.41682 1.91907C1.79582 1.55016 2.25805 1.2779 2.76445 1.1253H2.76357ZM3.14494 2.38715C2.84109 2.47867 2.56372 2.64199 2.33629 2.8633C2.10886 3.08462 1.93804 3.35742 1.83827 3.65867C0.982391 6.24301 1.67571 9.52594 3.97798 13.5136C6.27849 17.4986 8.77232 19.7394 11.4349 20.293C11.7473 20.358 12.0708 20.3463 12.3778 20.2591C12.6847 20.1719 12.966 20.0117 13.1976 19.7921L14.3066 18.7429C14.5771 18.4868 14.7455 18.1412 14.7804 17.7703C14.8153 17.3993 14.7144 17.0283 14.4964 16.7262L13.2064 14.9389C13.0186 14.6786 12.7542 14.4836 12.4501 14.3812C12.1459 14.2788 11.8174 14.2741 11.5104 14.3677L9.42346 15.0066C8.26881 15.3502 7.1827 14.3879 6.00345 12.344C5.00433 10.6147 4.65811 9.36513 5.08518 8.49256C5.16778 8.32384 5.28025 8.17182 5.41733 8.04353L7.00344 6.56463C7.23845 6.34563 7.39897 6.05854 7.46249 5.74365C7.526 5.42877 7.48931 5.10189 7.35757 4.80893L6.44984 2.79049C6.29673 2.44977 6.02483 2.17643 5.68493 2.02152C5.34502 1.8666 4.96035 1.84071 4.60275 1.94866L3.14406 2.38803L3.14494 2.38715Z" fill="black"/>
</svg>
