<?xml version="1.0" encoding="UTF-8" standalone="no"?>
<svg
   xmlns:dc="http://purl.org/dc/elements/1.1/"
   xmlns:cc="http://creativecommons.org/ns#"
   xmlns:rdf="http://www.w3.org/1999/02/22-rdf-syntax-ns#"
   xmlns:svg="http://www.w3.org/2000/svg"
   xmlns="http://www.w3.org/2000/svg"
   xmlns:sodipodi="http://sodipodi.sourceforge.net/DTD/sodipodi-0.dtd"
   xmlns:inkscape="http://www.inkscape.org/namespaces/inkscape"
   width="20.166712"
   height="21.610147"
   viewBox="0 0 20.166712 21.610147"
   fill="none"
   version="1.1"
   id="svg4"
   sodipodi:docname="msj.svg"
   inkscape:version="1.0.2 (e86c870879, 2021-01-15, custom)">
  <metadata
     id="metadata10">
    <rdf:RDF>
      <cc:Work
         rdf:about="">
        <dc:format>image/svg+xml</dc:format>
        <dc:type
           rdf:resource="http://purl.org/dc/dcmitype/StillImage" />
      </cc:Work>
    </rdf:RDF>
  </metadata>
  <defs
     id="defs8" />
  <sodipodi:namedview
     pagecolor="#ffffff"
     bordercolor="#666666"
     borderopacity="1"
     objecttolerance="10"
     gridtolerance="10"
     guidetolerance="10"
     inkscape:pageopacity="0"
     inkscape:pageshadow="2"
     inkscape:window-width="1280"
     inkscape:window-height="961"
     id="namedview6"
     showgrid="false"
     inkscape:zoom="33.409091"
     inkscape:cx="11.049011"
     inkscape:cy="11"
     inkscape:window-x="-8"
     inkscape:window-y="-8"
     inkscape:window-maximized="1"
     inkscape:current-layer="svg4" />
  <path
     fill-rule="evenodd"
     clip-rule="evenodd"
     d="m 3.669001,16.3002 c -0.06253,-0.2004 -0.16278,-0.3825 -0.29361,-0.5333 -1.3373,-1.5399 -2.11497,-3.5111 -2.11497,-5.6358 0,-4.61977 3.78629,-8.6838 8.82289,-8.6838 5.0366,0 8.8229,4.06403 8.8229,8.6838 0,4.6213 -3.7863,8.6839 -8.8229,8.6839 -0.88887,0.0016 -1.7741,-0.1308 -2.63299,-0.3937 -0.29961,-0.0919 -0.61823,-0.0538 -0.89489,0.1071 -0.48778,0.2837 -1.56166,0.825 -3.31994,1.2924 0.24512,-0.9449 0.41306,-1.9139 0.50164,-2.8946 0.01766,-0.2119 -0.00561,-0.4256 -0.06813,-0.626 z m -1.81367,5.3052 c 0.30045,-0.0565 0.60005,-0.1188 0.89868,-0.1867 2.3053,-0.5254 3.71571,-1.2187 4.37112,-1.5993 0.96496,0.2955 1.95951,0.4444 2.95818,0.4429 5.5685,0 10.0834,-4.5359 10.0834,-10.1312 C 20.166711,4.53585 15.651811,0 10.083311,0 4.514811,0 0,4.53585 0,10.1311 c 0,2.5473 0.936491,4.8774 2.483021,6.6576 -0.09327,1.1159 -0.34788,2.3143 -0.66046,3.3563 l -0.00378,0.0145 c -0.09305,0.3114 -0.19563,0.6189 -0.30754,0.9219 -0.09957,0.2692 0.09201,0.5703 0.34409,0.524 z M 5.701361,6.11031 c -0.12893,0.13816 -0.20136,0.32554 -0.20136,0.52093 0,0.19539 0.07243,0.38277 0.20136,0.52093 0.12893,0.13816 0.3038,0.21578 0.48614,0.21578 h 9.62501 c 0.1823,0 0.3572,-0.07762 0.4861,-0.21578 0.129,-0.13816 0.2014,-0.32554 0.2014,-0.52093 0,-0.19539 -0.0724,-0.38277 -0.2014,-0.52093 -0.1289,-0.13816 -0.3038,-0.21578 -0.4861,-0.21578 h -9.62501 c -0.18234,0 -0.35721,0.07762 -0.48614,0.21578 z m 0,3.68354 c -0.12893,0.13816 -0.20136,0.32555 -0.20136,0.52095 0,0.1954 0.07243,0.3828 0.20136,0.5209 0.12893,0.1382 0.3038,0.2158 0.48614,0.2158 h 9.62501 c 0.1823,0 0.3572,-0.0776 0.4861,-0.2158 0.129,-0.1381 0.2014,-0.3255 0.2014,-0.5209 0,-0.1954 -0.0724,-0.38279 -0.2014,-0.52095 -0.1289,-0.13816 -0.3038,-0.21578 -0.4861,-0.21578 h -9.62501 c -0.18234,0 -0.35721,0.07762 -0.48614,0.21578 z m 0,3.68355 c -0.12893,0.1381 -0.20136,0.3255 -0.20136,0.5209 0,0.1954 0.07243,0.3828 0.20136,0.521 0.12893,0.1381 0.3038,0.2157 0.48614,0.2157 h 5.50001 c 0.1823,0 0.3572,-0.0776 0.4861,-0.2157 0.129,-0.1382 0.2014,-0.3256 0.2014,-0.521 0,-0.1954 -0.0724,-0.3828 -0.2014,-0.5209 -0.1289,-0.1382 -0.3038,-0.2158 -0.4861,-0.2158 h -5.50001 c -0.18234,0 -0.35721,0.0776 -0.48614,0.2158 z"
     fill="black"
     id="path2"
     style="fill:#c877ef;fill-opacity:1" />
</svg>
