<svg width="25" height="16" viewBox="0 0 25 16" fill="none" xmlns="http://www.w3.org/2000/svg">
<path fill-rule="evenodd" clip-rule="evenodd" d="M0.107788 3.4901C0.107788 2.67441 0.431818 1.89214 1.0086 1.31536C1.58537 0.738581 2.36765 0.414551 3.18334 0.414551H14.7166C15.4626 0.414463 16.1832 0.685496 16.7442 1.17718C17.3052 1.66886 17.6683 2.34767 17.7661 3.0872L22.5485 0.961999C22.7826 0.857694 23.0391 0.813547 23.2946 0.833572C23.5501 0.853597 23.7965 0.937158 24.0115 1.07666C24.2265 1.21616 24.4032 1.40718 24.5255 1.63235C24.6479 1.85752 24.7121 2.10971 24.7122 2.36599V13.8409C24.712 14.0969 24.6478 14.3489 24.5255 14.5739C24.4032 14.7989 24.2267 14.9898 24.0119 15.1292C23.7971 15.2687 23.5509 15.3523 23.2957 15.3725C23.0404 15.3927 22.7841 15.3488 22.5501 15.2449L17.7661 13.1196C17.6683 13.8592 17.3052 14.538 16.7442 15.0297C16.1832 15.5214 15.4626 15.7924 14.7166 15.7923H3.18334C2.36765 15.7923 1.58537 15.4683 1.0086 14.8915C0.431818 14.3147 0.107788 13.5324 0.107788 12.7168V3.4901ZM17.7922 11.4481L23.1744 13.8409V2.36599L17.7922 4.75876V11.4481ZM3.18334 1.95233C2.77549 1.95233 2.38436 2.11434 2.09597 2.40273C1.80758 2.69112 1.64556 3.08226 1.64556 3.4901V12.7168C1.64556 13.1246 1.80758 13.5157 2.09597 13.8041C2.38436 14.0925 2.77549 14.2545 3.18334 14.2545H14.7166C15.1245 14.2545 15.5156 14.0925 15.804 13.8041C16.0924 13.5157 16.2544 13.1246 16.2544 12.7168V3.4901C16.2544 3.08226 16.0924 2.69112 15.804 2.40273C15.5156 2.11434 15.1245 1.95233 14.7166 1.95233H3.18334Z" fill="black"/>
</svg>
