<?xml version="1.0" encoding="UTF-8" standalone="no"?>
<svg
   xmlns:dc="http://purl.org/dc/elements/1.1/"
   xmlns:cc="http://creativecommons.org/ns#"
   xmlns:rdf="http://www.w3.org/1999/02/22-rdf-syntax-ns#"
   xmlns:svg="http://www.w3.org/2000/svg"
   xmlns="http://www.w3.org/2000/svg"
   xmlns:sodipodi="http://sodipodi.sourceforge.net/DTD/sodipodi-0.dtd"
   xmlns:inkscape="http://www.inkscape.org/namespaces/inkscape"
   width="77.535103"
   height="23.117201"
   viewBox="0 0 77.535103 23.117201"
   fill="none"
   version="1.1"
   id="svg4"
   sodipodi:docname="logo_dr_hibbert.svg"
   inkscape:version="1.0.2 (e86c870879, 2021-01-15, custom)">
  <metadata
     id="metadata10">
    <rdf:RDF>
      <cc:Work
         rdf:about="">
        <dc:format>image/svg+xml</dc:format>
        <dc:type
           rdf:resource="http://purl.org/dc/dcmitype/StillImage" />
      </cc:Work>
    </rdf:RDF>
  </metadata>
  <defs
     id="defs8" />
  <sodipodi:namedview
     pagecolor="#ffffff"
     bordercolor="#666666"
     borderopacity="1"
     objecttolerance="10"
     gridtolerance="10"
     guidetolerance="10"
     inkscape:pageopacity="0"
     inkscape:pageshadow="2"
     inkscape:window-width="1280"
     inkscape:window-height="961"
     id="namedview6"
     showgrid="false"
     inkscape:zoom="5.9840426"
     inkscape:cx="39.000001"
     inkscape:cy="11.5"
     inkscape:window-x="-8"
     inkscape:window-y="-8"
     inkscape:window-maximized="1"
     inkscape:current-layer="svg4" />
  <path
     fill-rule="evenodd"
     clip-rule="evenodd"
     d="M 24.701101,9 V 6.10547 h 1.3125 c 1.0391,0 1.8555,-0.24805 2.4492,-0.74414 0.5977,-0.5 0.8965,-1.16602 0.8965,-1.99805 0,-0.5625 -0.1387,-1.06445 -0.416,-1.50586 -0.2735,-0.44531 -0.6621,-0.78711 -1.166,-1.02539 -0.5,-0.24219 -1.0762,-0.36328 -1.7286,-0.36328 h -3.4042 V 9 Z m 1.3476,-4.48242 h -1.3476 V 2.05664 h 1.3711 c 0.3711,0.00391 0.664,0.125 0.8789,0.36328 0.2148,0.23828 0.3223,0.55664 0.3223,0.95508 0,0.36328 -0.1055,0.64453 -0.3164,0.84375 -0.2071,0.19922 -0.5098,0.29883 -0.9083,0.29883 z m 4.0594,-0.4336 c -0.2461,0.49219 -0.3691,1.05469 -0.3691,1.6875 l 0.0058,0.33399 c 0.043,0.92578 0.3379,1.66015 0.8848,2.20312 0.5469,0.53907 1.2715,0.80861 2.1738,0.80861 0.9375,0 1.6797,-0.28908 2.2266,-0.8672 0.5508,-0.58203 0.8262,-1.36719 0.8262,-2.35547 V 5.82422 c 0,-1.01172 -0.2735,-1.81055 -0.8203,-2.39649 -0.5469,-0.58984 -1.295,-0.88476 -2.2442,-0.88476 -0.6211,0 -1.1621,0.13281 -1.623,0.39844 -0.461,0.26562 -0.8145,0.64648 -1.0606,1.14257 z m 1.8809,3.09961 c -0.1836,-0.27343 -0.2754,-0.70312 -0.2754,-1.28906 l 0.0059,-0.35742 c 0.0546,-0.98047 0.4121,-1.4707 1.0722,-1.4707 0.7266,0 1.0899,0.56836 1.0899,1.70507 V 5.9707 c -0.0157,1.08203 -0.375,1.62305 -1.0782,1.62305 -0.3593,0 -0.6308,-0.13672 -0.8144,-0.41016 z m 7.6219,-2.7832 0.6503,0.04688 0.0352,-1.83399 c -0.1562,-0.04687 -0.3398,-0.07031 -0.5508,-0.07031 -0.5937,0 -1.0566,0.31055 -1.3886,0.93164 l -0.0645,-0.81445 h -1.8516 V 9 h 1.9746 V 4.98633 c 0.1758,-0.39063 0.5743,-0.58594 1.1954,-0.58594 z m 3.655,-1.74023 V 1.08398 h -1.9746 v 1.57618 h -0.8086 v 1.37109 h 0.8086 v 3.14648 c 0,0.65235 0.1621,1.13868 0.4864,1.45899 0.3242,0.32031 0.8261,0.48048 1.5058,0.48048 0.3867,0 0.7578,-0.0567 1.1133,-0.16993 V 7.53516 c -0.1328,0.02343 -0.2969,0.03515 -0.4922,0.03515 -0.2539,0 -0.4238,-0.04687 -0.5098,-0.14062 -0.0859,-0.09375 -0.1289,-0.25977 -0.1289,-0.49805 V 4.03125 h 1.043 V 2.66016 Z m 4.909,5.77148 c 0.0547,0.25 0.1172,0.43945 0.1875,0.56836 h 1.9746 V 8.90039 c -0.1718,-0.30859 -0.2617,-0.75391 -0.2695,-1.33594 V 4.75781 c -0.0117,-0.6875 -0.252,-1.22851 -0.7207,-1.62304 -0.4688,-0.39454 -1.1074,-0.5918 -1.916,-0.5918 -0.8086,0 -1.4746,0.19141 -1.9981,0.57422 -0.5195,0.38281 -0.7793,0.88086 -0.7793,1.49414 h 1.9746 c 0,-0.46094 0.2344,-0.69141 0.7032,-0.69141 0.5039,0 0.7558,0.29102 0.7558,0.87305 v 0.33398 h -0.6093 c -0.9688,0 -1.7071,0.17578 -2.2149,0.52735 -0.5078,0.35156 -0.7617,0.87109 -0.7617,1.55859 0,0.54688 0.209,1.00195 0.6269,1.36523 0.418,0.35938 0.9258,0.53908 1.5235,0.53908 0.6523,0 1.1601,-0.22853 1.5234,-0.68556 z m -0.4394,-0.87891 c -0.1602,0.10547 -0.3633,0.15821 -0.6094,0.15821 -0.1875,0 -0.3418,-0.05469 -0.4629,-0.16406 -0.1211,-0.11329 -0.1816,-0.25977 -0.1816,-0.43946 0,-0.61719 0.3437,-0.92578 1.0312,-0.92578 h 0.5742 v 1.01367 c -0.0703,0.13281 -0.1875,0.25196 -0.3515,0.35742 z M 50.968701,9 h 1.9804 V 0 h -1.9804 z m 5.9918,-5.58984 c -0.4336,0.57812 -0.6504,1.36914 -0.6504,2.37304 0,1.06641 0.2207,1.88868 0.6621,2.4668 0.4414,0.57812 1.0391,0.8672 1.793,0.8672 0.625,0 1.1406,-0.26564 1.5468,-0.79689 L 60.411601,9 h 1.7754 V 0 h -1.9804 v 3.21094 c -0.3868,-0.44532 -0.8633,-0.66797 -1.4297,-0.66797 -0.7774,0 -1.3828,0.28906 -1.8164,0.86719 z m 2.3086,4.18359 c -0.6563,0 -0.9844,-0.5625 -0.9844,-1.6875 l 0.0059,-0.36328 c 0.0507,-0.98438 0.3808,-1.47656 0.9902,-1.47656 0.4375,0 0.7461,0.1875 0.9258,0.5625 v 2.41406 c -0.1875,0.36719 -0.5,0.55078 -0.9375,0.55078 z m 4.4461,0.65625 c 0.6015,0.57812 1.3886,0.8672 2.3613,0.8672 0.5195,0 1.0039,-0.0996 1.4531,-0.29884 0.4531,-0.20313 0.8027,-0.47461 1.0488,-0.81445 l -0.9023,-1.06641 c -0.3516,0.4375 -0.8398,0.65625 -1.4648,0.65625 -0.379,0 -0.6875,-0.10156 -0.9258,-0.30469 -0.2383,-0.20312 -0.3926,-0.48242 -0.4629,-0.83789 h 3.9258 V 5.68359 c 0,-0.98828 -0.2579,-1.75781 -0.7735,-2.30859 -0.5156,-0.55469 -1.2187,-0.83203 -2.1094,-0.83203 -0.6328,0 -1.1796,0.13672 -1.6406,0.41015 -0.4609,0.26954 -0.8125,0.65235 -1.0547,1.14844 -0.2382,0.4961 -0.3574,1.06836 -0.3574,1.7168 v 0.16406 c 0,0.92969 0.3008,1.68555 0.9024,2.26758 z m 1.1074,-3.03516 c 0.1094,-0.76562 0.4531,-1.14843 1.0312,-1.14843 0.3125,0 0.5528,0.08789 0.7207,0.26367 0.168,0.17187 0.2481,0.41601 0.2403,0.73242 V 5.21484 Z M 69.350701,9 h 1.9805 V 0 h -1.9805 z m -46.7062,5.4688 V 23 h 2.8066 c 0.7383,-0.0039 1.4062,-0.1797 2.0039,-0.5273 0.6016,-0.3516 1.0664,-0.836 1.3945,-1.4532 0.3321,-0.6211 0.4981,-1.3222 0.4981,-2.1035 v -0.3926 c -0.0039,-0.7734 -0.1758,-1.4707 -0.5156,-2.0918 -0.336,-0.625 -0.8047,-1.1074 -1.4063,-1.4472 -0.6016,-0.3438 -1.2793,-0.5156 -2.0332,-0.5156 z m 2.0566,6.9492 v -5.3614 h 0.6914 c 0.6055,0 1.0664,0.209 1.3828,0.627 0.3164,0.418 0.4746,1.0391 0.4746,1.8633 v 0.3691 c 0,0.8281 -0.1582,1.4531 -0.4746,1.875 -0.3164,0.418 -0.7695,0.627 -1.3594,0.627 z m 8.4949,-3.0176 0.6504,0.0469 0.0352,-1.834 c -0.1563,-0.0469 -0.3399,-0.0703 -0.5508,-0.0703 -0.5938,0 -1.0567,0.3105 -1.3887,0.9316 l -0.0644,-0.8144 h -1.8516 V 23 h 1.9746 v -4.0137 c 0.1758,-0.3906 0.5742,-0.5859 1.1953,-0.5859 z m 2.0438,2.9648 c -0.2071,-0.1875 -0.4668,-0.2812 -0.7793,-0.2812 -0.3164,0 -0.5782,0.0937 -0.7852,0.2812 -0.2031,0.1875 -0.3047,0.4239 -0.3047,0.709 0,0.2852 0.1016,0.5215 0.3047,0.709 0.207,0.1875 0.4688,0.2813 0.7852,0.2813 0.3125,0 0.5722,-0.0918 0.7793,-0.2754 0.207,-0.1875 0.3105,-0.4258 0.3105,-0.7149 0,-0.289 -0.1035,-0.5254 -0.3105,-0.709 z M 44.436601,23 h 2.045 v -8.5312 h -2.045 v 3.3867 h -3.0293 v -3.3867 h -2.0566 V 23 h 2.0566 v -3.5625 h 3.0293 z m 3.0633,0 h 1.9805 v -6.3398 h -1.9805 z m 0.1875,-8.666 c -0.2031,0.1797 -0.3047,0.4101 -0.3047,0.6914 0,0.2812 0.1016,0.5117 0.3047,0.6914 0.2031,0.1797 0.4668,0.2695 0.791,0.2695 0.3243,0 0.5879,-0.0898 0.7911,-0.2695 0.2031,-0.1797 0.3046,-0.4102 0.3046,-0.6914 0,-0.2813 -0.1015,-0.5117 -0.3046,-0.6914 -0.2032,-0.1797 -0.4668,-0.2695 -0.7911,-0.2695 -0.3242,0 -0.5879,0.0898 -0.791,0.2695 z m 7.9559,7.9453 c 0.4297,-0.5586 0.6445,-1.3574 0.6445,-2.3965 v -0.0996 c 0,-1.0273 -0.2148,-1.8242 -0.6445,-2.3906 -0.4297,-0.5664 -1.0391,-0.8496 -1.8281,-0.8496 -0.5821,0 -1.0567,0.209 -1.4239,0.6269 V 14 h -1.9746 v 9 h 1.7695 l 0.0821,-0.6504 c 0.3945,0.5117 0.914,0.7676 1.5586,0.7676 0.7812,0 1.3867,-0.2793 1.8164,-0.8379 z m -1.5821,-3.8203 c 0.1641,0.2578 0.2461,0.6914 0.2461,1.3008 0,0.5507 -0.0312,0.9375 -0.0937,1.1601 -0.125,0.4531 -0.4199,0.6797 -0.8848,0.6797 -0.457,0 -0.7695,-0.168 -0.9375,-0.5039 v -2.5195 c 0.1719,-0.3399 0.4805,-0.5098 0.9258,-0.5098 0.3359,0 0.584,0.1309 0.7441,0.3926 z m 8.0438,3.8203 c 0.4297,-0.5586 0.6445,-1.3574 0.6445,-2.3965 v -0.0996 c 0,-1.0273 -0.2148,-1.8242 -0.6445,-2.3906 -0.4297,-0.5664 -1.0391,-0.8496 -1.8281,-0.8496 -0.5821,0 -1.0567,0.209 -1.4238,0.6269 V 14 h -1.9747 v 9 h 1.7696 l 0.082,-0.6504 c 0.3945,0.5117 0.9141,0.7676 1.5586,0.7676 0.7812,0 1.3867,-0.2793 1.8164,-0.8379 z m -1.582,-3.8203 c 0.164,0.2578 0.2461,0.6914 0.2461,1.3008 0,0.5507 -0.0313,0.9375 -0.0938,1.1601 -0.125,0.4531 -0.4199,0.6797 -0.8847,0.6797 -0.4571,0 -0.7696,-0.168 -0.9375,-0.5039 v -2.5195 c 0.1718,-0.3399 0.4804,-0.5098 0.9257,-0.5098 0.336,0 0.584,0.1309 0.7442,0.3926 z m 3.5086,3.791 c 0.6015,0.5781 1.3886,0.8672 2.3613,0.8672 0.5195,0 1.0039,-0.0996 1.4531,-0.2988 0.4531,-0.2032 0.8028,-0.4746 1.0488,-0.8145 l -0.9023,-1.0664 c -0.3516,0.4375 -0.8398,0.6563 -1.4648,0.6563 -0.3789,0 -0.6875,-0.1016 -0.9258,-0.3047 -0.2383,-0.2032 -0.3926,-0.4825 -0.4629,-0.8379 h 3.9258 v -0.7676 c 0,-0.9883 -0.2578,-1.7578 -0.7735,-2.3086 -0.5156,-0.5547 -1.2187,-0.832 -2.1093,-0.832 -0.6329,0 -1.1797,0.1367 -1.6407,0.4101 -0.4609,0.2696 -0.8125,0.6524 -1.0547,1.1485 -0.2382,0.4961 -0.3574,1.0683 -0.3574,1.7168 v 0.164 c 0,0.9297 0.3008,1.6856 0.9024,2.2676 z m 1.1074,-3.0352 c 0.1094,-0.7656 0.4531,-1.1484 1.0312,-1.1484 0.3125,0 0.5528,0.0879 0.7207,0.2637 0.168,0.1719 0.2481,0.416 0.2403,0.7324 v 0.1523 z m 7.6101,-0.8144 0.6504,0.0469 0.0352,-1.834 c -0.1563,-0.0469 -0.3399,-0.0703 -0.5508,-0.0703 -0.5937,0 -1.0566,0.3105 -1.3887,0.9316 l -0.0644,-0.8144 h -1.8516 V 23 h 1.9746 v -4.0137 c 0.1758,-0.3906 0.5742,-0.5859 1.1953,-0.5859 z m 3.6551,-1.7402 V 15.084 h -1.9746 v 1.5762 h -0.8086 v 1.371 h 0.8086 v 3.1465 c 0,0.6524 0.1621,1.1387 0.4863,1.459 0.3243,0.3203 0.8262,0.4805 1.5059,0.4805 0.3867,0 0.7578,-0.0567 1.1133,-0.1699 v -1.4121 c -0.1328,0.0234 -0.2969,0.0351 -0.4922,0.0351 -0.2539,0 -0.4238,-0.0469 -0.5098,-0.1406 -0.0859,-0.0938 -0.1289,-0.2598 -0.1289,-0.4981 v -2.9004 h 1.043 v -1.371 z m -63.087,-13.65353 c 0.043,-0.00332 0.0864,-0.00535 0.1284,-0.00588 1.3055,-0.01643 2.2188,1.28348 2.2994,2.47903 0.2763,1.85066 -0.5792,4.08528 -2.4917,4.71798 -0.2252,0.0603 -0.4643,0.08 -0.6948,0.0367 -1.588,-0.3201 -2.2255,-2.15372 -2.0265,-3.58088 0.136,-1.57258 1.076,-3.35585 2.7852,-3.64695 z M 4.1394012,5.16629 c 0.1684,-0.99976 0.9963,-2.06326 2.0594,-2.08901 0.1518,-0.00367 0.3078,0.01399 0.4681,0.05593 1.7527,0.46817 2.6297,2.39364 2.6722,4.05882 0.0591,1.26254 -0.5397,2.82597 -1.9536,3.05847 -0.198,0.0302 -0.4003,0.0259 -0.5964,-0.016 -2.0915,-0.6266 -3.0048,-3.08752 -2.6497,-5.06821 z M 14.797901,12.3118 c 0.1799,-1.6901 1.4405,-3.50016 3.2791,-3.60891 1.3289,0.06544 2.0332,1.49701 1.9086,2.67631 -0.0553,1.7832 -1.3966,3.8555 -3.3621,3.8795 -1.41,-0.0974 -2.0685,-1.7281 -1.8256,-2.9469 z M 0.17583119,10.3449 c 0.25562,-0.7843 1.02496001,-1.2466 1.80723001,-1.24 0.30614,0.0024 0.61494,0.0772 0.89464,0.2321 1.7175,0.8323 2.7322,2.9611 2.2383,4.7947 -0.2333,0.8573 -1.0594,1.5695 -1.9997,1.4109 -2.25296001,-0.4411 -3.62248001,-3.099 -2.94047001,-5.1977 z m 5.96627001,4.4369 c 0.9929,-1.143 2.5504,-1.9108 4.0839998,-1.9141 0.7492,-0.0014 1.4921,0.1799 2.1606,0.5885 1.6682,0.9923 2.7585,2.6626 3.7759,4.2519 l 0.0046,0.0092 c 0.4978,0.9769 1.0949,2.1489 0.6873,3.2475 -0.5202,1.0819 -1.9278,1.2466 -2.9465,0.8168 -0.2414,-0.0902 -0.4825,-0.19 -0.7247,-0.2901 -0.9583,-0.3965 -1.932,-0.7994 -2.9944,-0.6396 -0.7407998,0.0373 -1.4340998,0.2954 -2.1257998,0.5529 -0.7727,0.2877 -1.5434,0.5745 -2.3758,0.5519 -1.3113,-0.0084 -2.2578,-1.4014 -1.8402,-2.6113 0.3437,-1.6811 1.2223,-3.2313 2.295,-4.5636 z"
     fill="#000000"
     id="path2" />
</svg>
