<?xml version="1.0" encoding="UTF-8" standalone="no"?>
<svg
   xmlns:dc="http://purl.org/dc/elements/1.1/"
   xmlns:cc="http://creativecommons.org/ns#"
   xmlns:rdf="http://www.w3.org/1999/02/22-rdf-syntax-ns#"
   xmlns:svg="http://www.w3.org/2000/svg"
   xmlns="http://www.w3.org/2000/svg"
   xmlns:sodipodi="http://sodipodi.sourceforge.net/DTD/sodipodi-0.dtd"
   xmlns:inkscape="http://www.inkscape.org/namespaces/inkscape"
   width="19.999737"
   height="19.000652"
   viewBox="0 0 19.999737 19.000652"
   fill="none"
   version="1.1"
   id="svg4"
   sodipodi:docname="logo_dr_hibbert_pata.svg"
   inkscape:version="1.0.2 (e86c870879, 2021-01-15, custom)">
  <metadata
     id="metadata10">
    <rdf:RDF>
      <cc:Work
         rdf:about="">
        <dc:format>image/svg+xml</dc:format>
        <dc:type
           rdf:resource="http://purl.org/dc/dcmitype/StillImage" />
        <dc:title></dc:title>
      </cc:Work>
    </rdf:RDF>
  </metadata>
  <defs
     id="defs8" />
  <sodipodi:namedview
     pagecolor="#ffffff"
     bordercolor="#666666"
     borderopacity="1"
     objecttolerance="10"
     gridtolerance="10"
     guidetolerance="10"
     inkscape:pageopacity="0"
     inkscape:pageshadow="2"
     inkscape:window-width="1280"
     inkscape:window-height="961"
     id="namedview6"
     showgrid="false"
     inkscape:zoom="5.9840426"
     inkscape:cx="39.000001"
     inkscape:cy="8.4993642"
     inkscape:window-x="-8"
     inkscape:window-y="-8"
     inkscape:window-maximized="1"
     inkscape:current-layer="svg4"
     inkscape:document-rotation="0" />
  <path
     fill-rule="evenodd"
     clip-rule="evenodd"
     d="m 13.317201,0.00603415 c 0.043,-0.00332 0.0864,-0.005349999 0.1284,-0.005879999 1.3055,-0.0164300013 2.2188,1.28348004868 2.2994,2.47903004868 0.2763,1.85066 -0.5792,4.08528 -2.4917,4.71798 -0.2252,0.0603 -0.4643,0.08 -0.6948,0.0367 -1.588,-0.3201 -2.2255,-2.15372 -2.0265,-3.58088 0.136,-1.57258 1.076,-3.35585005 2.7852,-3.64695005 z M 4.1394012,2.1656542 c 0.1684,-0.99976 0.9963,-2.06326005 2.0594,-2.08901005 0.1518,-0.00367 0.3078,0.01399 0.4681,0.05593 1.7527,0.46817 2.6297,2.39364005 2.6722,4.05882005 0.0591,1.26254 -0.5397,2.82597 -1.9536,3.05847 -0.198,0.0302 -0.4003,0.0259 -0.5964,-0.016 -2.0915,-0.6266 -3.0048,-3.08752 -2.6497,-5.06821 z m 10.6584998,7.14551 c 0.1799,-1.6901 1.4405,-3.50016 3.2791,-3.60891 1.3289,0.06544 2.0332,1.49701 1.9086,2.67631 -0.0553,1.7831998 -1.3966,3.8554998 -3.3621,3.8794998 -1.41,-0.0974 -2.0685,-1.7281 -1.8256,-2.9468998 z m -14.62206981,-1.9669 c 0.25562,-0.7843 1.02496001,-1.2466 1.80723001,-1.24 0.30614,0.0024 0.61494,0.0772 0.89464,0.2321 1.7175,0.8323 2.7322,2.9611 2.2383,4.7946998 -0.2333,0.8573 -1.0594,1.5695 -1.9997,1.4109 C 0.86334119,12.100864 -0.50617881,9.4429642 0.17583119,7.3442642 Z M 6.1421012,11.781164 c 0.9929,-1.143 2.5504,-1.9107998 4.0839998,-1.9140998 0.7492,-0.0014 1.4921,0.1798998 2.1606,0.5884998 1.6682,0.9923 2.7585,2.6626 3.7759,4.2519 l 0.0046,0.0092 c 0.4978,0.9769 1.0949,2.1489 0.6873,3.2475 -0.5202,1.0819 -1.9278,1.2466 -2.9465,0.8168 -0.2414,-0.0902 -0.4825,-0.19 -0.7247,-0.2901 -0.9583,-0.3965 -1.932,-0.7994 -2.9944,-0.6396 -0.7407998,0.0373 -1.4340998,0.2954 -2.1257998,0.5529 -0.7727,0.2877 -1.5434,0.5745 -2.3758,0.5519 -1.3113,-0.0084 -2.2578,-1.4014 -1.8402,-2.6113 0.3437,-1.6811 1.2223,-3.2313 2.295,-4.5636 z"
     fill="#000000"
     id="path2"
     sodipodi:nodetypes="cccccccccccccccccccccccccccccccccccccc" />
</svg>
