<svg width="22" height="22" viewBox="0 0 22 22" fill="none" xmlns="http://www.w3.org/2000/svg">
<path fill-rule="evenodd" clip-rule="evenodd" d="M9.79062 2.54297C5.78585 2.54297 2.5415 5.79463 2.5415 9.80308C2.5415 13.8115 5.78585 17.0632 9.79062 17.0632C11.3373 17.0632 12.7706 16.5782 13.9473 15.7518L13.9536 15.7581L17.2032 19.0132L17.733 19.544L18.7946 18.4842L18.2647 17.9534L15.0821 14.7654C16.2964 13.4671 17.0397 11.7218 17.0397 9.80308C17.0397 5.79463 13.7954 2.54297 9.79062 2.54297ZM4.0415 9.80308C4.0415 6.62066 6.61667 4.04297 9.79062 4.04297C12.9646 4.04297 15.5397 6.62066 15.5397 9.80308C15.5397 12.9855 12.9646 15.5632 9.79062 15.5632C6.61667 15.5632 4.0415 12.9855 4.0415 9.80308Z" fill="black"/>
</svg>