<svg width="22" height="22" viewBox="0 0 22 22" fill="none" xmlns="http://www.w3.org/2000/svg">
<path d="M21.1832 10.8379L12.1269 1.78639L11.5199 1.17936C11.3816 1.04196 11.1945 0.964844 10.9996 0.964844C10.8046 0.964844 10.6176 1.04196 10.4792 1.17936L0.815966 10.8379C0.674242 10.9791 0.562235 11.1473 0.486557 11.3324C0.410879 11.5176 0.373063 11.716 0.375341 11.9161C0.384716 12.7411 1.07143 13.3997 1.89643 13.3997H2.89253V21.0333H19.1066V13.3997H20.1238C20.5246 13.3997 20.9019 13.2426 21.1855 12.959C21.3251 12.8199 21.4358 12.6543 21.511 12.4721C21.5862 12.2898 21.6246 12.0945 21.6238 11.8973C21.6238 11.4989 21.4667 11.1215 21.1832 10.8379V10.8379ZM12.3121 19.3458H9.68706V14.5645H12.3121V19.3458ZM17.4191 11.7122V19.3458H13.8121V14.002C13.8121 13.484 13.3925 13.0645 12.8746 13.0645H9.12456C8.60659 13.0645 8.18706 13.484 8.18706 14.002V19.3458H4.58003V11.7122H2.33003L11.0019 3.04732L11.5433 3.58873L19.6714 11.7122H17.4191Z" fill="black"/>
</svg>