<svg width="23" height="20" viewBox="0 0 23 20" fill="none" xmlns="http://www.w3.org/2000/svg">
<path d="M13.2076 4.04766L13.2046 4.0681C13.1175 4.65974 13.2164 5.34178 13.5025 5.89267C13.7806 6.42812 14.2131 6.80659 14.809 6.92205C14.9294 6.94277 15.0724 6.93655 15.2277 6.89948C16.8438 6.37937 17.6695 4.51746 17.4087 2.86254L17.4037 2.83096L17.4014 2.79906C17.3695 2.3504 17.167 1.86241 16.8382 1.49599C16.5161 1.13703 16.1069 0.928258 15.65 0.933699C15.65 0.9337 15.65 0.9337 15.65 0.9337M13.2076 4.04766L15.65 0.9337M13.2076 4.04766L13.2095 4.02708C13.341 2.58579 14.2222 1.17616 15.5876 0.935809M13.2076 4.04766L15.5876 0.935809M15.65 0.9337C15.6302 0.933937 15.6092 0.934641 15.5876 0.935809M15.65 0.9337L15.5876 0.935809M3.13049 7.24226L3.13648 6.49228L3.13102 7.24226C3.35396 7.24389 3.57203 7.29557 3.76415 7.39634L3.78164 7.4055L3.79958 7.41374C5.37155 8.13544 6.25991 9.97809 5.83315 11.4813C5.66387 12.0687 5.08095 12.4942 4.49961 12.4062C2.50338 12.0292 1.27833 9.75537 1.87429 8.01743C2.02667 7.57508 2.52735 7.23745 3.13049 7.24226ZM6.22575 2.56121L6.2258 2.56122L6.22724 2.55309C6.29209 2.18847 6.49171 1.78985 6.78537 1.4861C7.07624 1.18524 7.4145 1.02037 7.75271 1.01262L7.73584 0.277466L7.75272 1.01262C7.84994 1.01038 7.95317 1.02085 8.06404 1.04817C9.51977 1.41773 10.37 2.99532 10.4115 4.53552L10.4117 4.54396L10.4121 4.55239C10.4382 5.07866 10.3162 5.66119 10.0503 6.11726C9.79372 6.55745 9.42326 6.85456 8.91898 6.9345C8.79441 6.95203 8.67098 6.95015 8.55435 6.92956C6.77785 6.40532 5.88862 4.34289 6.22575 2.56121ZM17.8502 9.96088L17.8576 9.92583L17.8616 9.89024C18.0292 8.39823 19.185 6.93712 20.6954 6.82818C21.1272 6.85979 21.4665 7.08877 21.7065 7.44615C21.9628 7.8279 22.0788 8.32457 22.0303 8.7596L22.027 8.78878L22.0261 8.81813C22.0016 9.56503 21.6865 10.4024 21.1472 11.0488C20.6206 11.6801 19.9234 12.0827 19.1293 12.1017C18.6718 12.0625 18.3213 11.8007 18.0867 11.3911C17.8378 10.9566 17.7562 10.4076 17.8502 9.96088ZM5.87469 17.3324L5.89228 17.2841L5.90312 17.2339C6.24254 15.6611 7.11902 14.1725 8.23566 12.856C9.18355 11.8285 10.6803 11.134 12.1304 11.1311C12.8317 11.1299 13.509 11.2902 14.1101 11.6383L14.1101 11.6383L14.1177 11.6426C15.7499 12.5624 16.846 14.1206 17.9624 15.7721C18.2346 16.2785 18.4891 16.7596 18.637 17.2395C18.7799 17.7034 18.7995 18.0943 18.6745 18.441C18.5138 18.7327 18.2172 18.9347 17.8 19.0238C17.3605 19.1176 16.85 19.0673 16.4238 18.897L16.4099 18.8914L16.3958 18.8864C16.1454 18.7978 15.8968 18.7004 15.6338 18.5973C15.5692 18.572 15.5038 18.5464 15.4373 18.5204C15.1069 18.3917 14.756 18.2584 14.3945 18.146C13.6792 17.9235 12.8828 17.769 12.0176 17.8852C11.1084 17.9351 10.2664 18.2328 9.541 18.4892C9.48936 18.5074 9.43831 18.5255 9.38787 18.5432C8.5801 18.8272 7.90179 19.0428 7.19677 19.0247L7.18942 19.0245L7.18207 19.0244C6.22484 19.0186 5.61197 18.0535 5.87469 17.3324Z" stroke="black" stroke-width="1.5"/>
</svg>