<svg width="17" height="18" viewBox="0 0 17 18" fill="none" xmlns="http://www.w3.org/2000/svg">
<path fill-rule="evenodd" clip-rule="evenodd" d="M12.5712 0.25L3.42835 0.252286L3.42786 0.252286C1.75308 0.253803 0.392822 1.61145 0.392822 3.288V14.7109C0.392822 15.516 0.712656 16.2881 1.28196 16.8574C1.85127 17.4267 2.62341 17.7466 3.42854 17.7466H12.68C13.0942 17.7466 13.43 17.4108 13.43 16.9966C13.43 16.5824 13.0942 16.2466 12.68 16.2466H3.42854C3.02124 16.2466 2.63063 16.0848 2.34262 15.7968C2.05462 15.5088 1.89282 15.1182 1.89282 14.7109V3.288C1.89282 2.44117 2.58048 1.75314 3.42905 1.75229L3.42922 1.75229L12.5716 1.75C12.9858 1.7499 13.3215 1.41403 13.3214 0.999812C13.3213 0.585599 12.9854 0.249896 12.5712 0.25ZM12.1582 5.03152C12.4558 4.74338 12.9306 4.75102 13.2187 5.04858L16.5387 8.47715C16.645 8.58691 16.7112 8.72102 16.7372 8.86111C16.7457 8.90611 16.7501 8.95255 16.7501 9C16.7501 9.21582 16.6589 9.41035 16.513 9.54719L13.2187 12.9492C12.9306 13.2468 12.4558 13.2544 12.1582 12.9662C11.8606 12.6781 11.853 12.2033 12.1411 11.9057L14.2286 9.75H5.71436C5.30014 9.75 4.96436 9.41421 4.96436 9C4.96436 8.58579 5.30014 8.25 5.71436 8.25H14.2308L12.1411 6.09204C11.853 5.79448 11.8606 5.31966 12.1582 5.03152Z" fill="black"/>
</svg>