<svg width="21" height="22" viewBox="0 0 21 22" fill="none" xmlns="http://www.w3.org/2000/svg">
<path fill-rule="evenodd" clip-rule="evenodd" d="M4.11993 16.3002C4.0574 16.0998 3.95715 15.9177 3.82632 15.7669C2.48902 14.227 1.71134 12.2558 1.71134 10.1311C1.71134 5.51133 5.49764 1.4473 10.5343 1.4473C15.5709 1.4473 19.3572 5.51133 19.3572 10.1311C19.3572 14.7524 15.5709 18.815 10.5343 18.815C9.64537 18.8166 8.76014 18.6842 7.90125 18.4213C7.60164 18.3294 7.28302 18.3675 7.00636 18.5284C6.51857 18.8121 5.4447 19.3534 3.68642 19.8208C3.93154 18.8759 4.09948 17.9069 4.18806 16.9262C4.20572 16.7143 4.18245 16.5006 4.11993 16.3002ZM2.30626 21.6054C2.6067 21.5489 2.90631 21.4866 3.20494 21.4187C5.51024 20.8933 6.92065 20.2 7.57606 19.8194C8.54102 20.1149 9.53557 20.2638 10.5343 20.2623C16.1028 20.2623 20.6176 15.7264 20.6176 10.1311C20.6176 4.53585 16.1028 0 10.5343 0C4.96574 0 0.450928 4.53585 0.450928 10.1311C0.450928 12.6784 1.38742 15.0085 2.93395 16.7887C2.84068 17.9046 2.58607 19.103 2.27349 20.145L2.26971 20.1595C2.17666 20.4709 2.07408 20.7784 1.96217 21.0814C1.86259 21.3506 2.05418 21.6517 2.30626 21.6054ZM6.15229 6.11031C6.02336 6.24847 5.95093 6.43585 5.95093 6.63124C5.95093 6.82663 6.02336 7.01401 6.15229 7.15217C6.28122 7.29033 6.45609 7.36795 6.63843 7.36795H16.2634C16.4458 7.36795 16.6206 7.29033 16.7496 7.15217C16.8785 7.01401 16.9509 6.82663 16.9509 6.63124C16.9509 6.43585 16.8785 6.24847 16.7496 6.11031C16.6206 5.97215 16.4458 5.89453 16.2634 5.89453H6.63843C6.45609 5.89453 6.28122 5.97215 6.15229 6.11031ZM6.15229 9.79385C6.02336 9.93201 5.95093 10.1194 5.95093 10.3148C5.95093 10.5102 6.02336 10.6976 6.15229 10.8357C6.28122 10.9739 6.45609 11.0515 6.63843 11.0515H16.2634C16.4458 11.0515 16.6206 10.9739 16.7496 10.8357C16.8785 10.6976 16.9509 10.5102 16.9509 10.3148C16.9509 10.1194 16.8785 9.93201 16.7496 9.79385C16.6206 9.65569 16.4458 9.57807 16.2634 9.57807H6.63843C6.45609 9.57807 6.28122 9.65569 6.15229 9.79385ZM6.15229 13.4774C6.02336 13.6155 5.95093 13.8029 5.95093 13.9983C5.95093 14.1937 6.02336 14.3811 6.15229 14.5193C6.28122 14.6574 6.45609 14.735 6.63843 14.735H12.1384C12.3208 14.735 12.4956 14.6574 12.6246 14.5193C12.7535 14.3811 12.8259 14.1937 12.8259 13.9983C12.8259 13.8029 12.7535 13.6155 12.6246 13.4774C12.4956 13.3392 12.3208 13.2616 12.1384 13.2616H6.63843C6.45609 13.2616 6.28122 13.3392 6.15229 13.4774Z" fill="black"/>
</svg>