<svg width="22" height="22" viewBox="0 0 22 22" fill="none" xmlns="http://www.w3.org/2000/svg">
<path d="M20.3347 10.8511L12.0331 2.55386L11.4767 1.99742C11.3499 1.87147 11.1784 1.80078 10.9997 1.80078C10.821 1.80078 10.6495 1.87147 10.5227 1.99742L1.66474 10.8511C1.53482 10.9805 1.43215 11.1347 1.36278 11.3044C1.29341 11.4741 1.25874 11.6561 1.26083 11.8394C1.26942 12.5957 1.89892 13.1994 2.65517 13.1994H3.56825V20.1968H18.4311V13.1994H19.3636C19.7309 13.1994 20.0768 13.0554 20.3368 12.7955C20.4648 12.6679 20.5662 12.5162 20.6352 12.3491C20.7042 12.182 20.7393 12.003 20.7386 11.8222C20.7386 11.457 20.5946 11.1111 20.3347 10.8511ZM12.2028 18.65H9.79657V14.2671H12.2028V18.65ZM16.8843 11.6525V18.65H13.5778V13.7515C13.5778 13.2767 13.1933 12.8921 12.7184 12.8921H9.28095C8.80614 12.8921 8.42157 13.2767 8.42157 13.7515V18.65H5.11513V11.6525H3.05263L11.0018 3.70972L11.4981 4.20601L18.9489 11.6525H16.8843Z" fill="black"/>
</svg>
