<svg width="23" height="22" viewBox="0 0 23 22" fill="none" xmlns="http://www.w3.org/2000/svg">
<path fill-rule="evenodd" clip-rule="evenodd" d="M4.11999 16.3002C4.05746 16.0998 3.95721 15.9177 3.82638 15.7669C2.48908 14.227 1.71141 12.2558 1.71141 10.1311C1.71141 5.51133 5.4977 1.4473 10.5343 1.4473C15.5709 1.4473 19.3572 5.51133 19.3572 10.1311C19.3572 14.7524 15.5709 18.815 10.5343 18.815C9.64543 18.8166 8.7602 18.6842 7.90131 18.4213C7.6017 18.3294 7.28308 18.3675 7.00642 18.5284C6.51864 18.8121 5.44476 19.3534 3.68648 19.8208C3.9316 18.8759 4.09954 17.9069 4.18812 16.9262C4.20578 16.7143 4.18251 16.5006 4.11999 16.3002ZM2.30632 21.6054C2.60677 21.5489 2.90637 21.4866 3.205 21.4187C5.5103 20.8933 6.92071 20.2 7.57612 19.8194C8.54108 20.1149 9.53563 20.2638 10.5343 20.2623C16.1028 20.2623 20.6177 15.7264 20.6177 10.1311C20.6177 4.53585 16.1028 0 10.5343 0C4.9658 0 0.450989 4.53585 0.450989 10.1311C0.450989 12.6784 1.38748 15.0085 2.93401 16.7887C2.84074 17.9046 2.58613 19.103 2.27355 20.145L2.26977 20.1595C2.17672 20.4709 2.07414 20.7784 1.96223 21.0814C1.86266 21.3506 2.05424 21.6517 2.30632 21.6054ZM6.15235 6.11031C6.02342 6.24847 5.95099 6.43585 5.95099 6.63124C5.95099 6.82663 6.02342 7.01401 6.15235 7.15217C6.28128 7.29033 6.45615 7.36795 6.63849 7.36795H16.2635C16.4458 7.36795 16.6207 7.29033 16.7496 7.15217C16.8786 7.01401 16.951 6.82663 16.951 6.63124C16.951 6.43585 16.8786 6.24847 16.7496 6.11031C16.6207 5.97215 16.4458 5.89453 16.2635 5.89453H6.63849C6.45615 5.89453 6.28128 5.97215 6.15235 6.11031ZM6.15235 9.79385C6.02342 9.93201 5.95099 10.1194 5.95099 10.3148C5.95099 10.5102 6.02342 10.6976 6.15235 10.8357C6.28128 10.9739 6.45615 11.0515 6.63849 11.0515H16.2635C16.4458 11.0515 16.6207 10.9739 16.7496 10.8357C16.8786 10.6976 16.951 10.5102 16.951 10.3148C16.951 10.1194 16.8786 9.93201 16.7496 9.79385C16.6207 9.65569 16.4458 9.57807 16.2635 9.57807H6.63849C6.45615 9.57807 6.28128 9.65569 6.15235 9.79385ZM6.15235 13.4774C6.02342 13.6155 5.95099 13.8029 5.95099 13.9983C5.95099 14.1937 6.02342 14.3811 6.15235 14.5193C6.28128 14.6574 6.45615 14.735 6.63849 14.735H12.1385C12.3208 14.735 12.4957 14.6574 12.6246 14.5193C12.7536 14.3811 12.826 14.1937 12.826 13.9983C12.826 13.8029 12.7536 13.6155 12.6246 13.4774C12.4957 13.3392 12.3208 13.2616 12.1385 13.2616H6.63849C6.45615 13.2616 6.28128 13.3392 6.15235 13.4774Z" fill="black"/>
</svg>
