<svg width="25" height="24" viewBox="0 0 25 24" fill="none" xmlns="http://www.w3.org/2000/svg">
<g clip-path="url(#clip0_519_1598)">
<path d="M14.2078 6.04668L14.2048 6.06712C14.1177 6.65877 14.2166 7.34081 14.5027 7.89169C14.7808 8.42715 15.2133 8.80562 15.8092 8.92107C15.9297 8.94179 16.0727 8.93557 16.2279 8.89851C17.844 8.37839 18.6697 6.51648 18.4089 4.86156L18.4039 4.82998L18.4017 4.79808C18.3697 4.34942 18.1672 3.86144 17.8384 3.49501C17.5163 3.13605 17.1071 2.92728 16.6502 2.93272L14.2078 6.04668ZM14.2078 6.04668L14.2097 6.0261M14.2078 6.04668L14.2097 6.0261M14.2097 6.0261C14.3413 4.58481 15.2224 3.17518 16.5878 2.93483M14.2097 6.0261L16.5878 2.93483M16.5878 2.93483C16.6094 2.93366 16.6304 2.93296 16.6502 2.93272L16.5878 2.93483ZM18.8618 11.8893C19.0294 10.3973 20.1852 8.93615 21.6956 8.82721C22.1274 8.85881 22.4667 9.0878 22.7067 9.44517C22.963 9.82693 23.079 10.3236 23.0305 10.7586L23.0272 10.7878L23.0263 10.8172C23.0018 11.564 22.6867 12.4014 22.1475 13.0478C21.6208 13.6791 20.9237 14.0818 20.1295 14.1007C19.672 14.0615 19.3215 13.7997 19.0869 13.3901C18.838 12.9556 18.7564 12.4067 18.8504 11.9599L18.8578 11.9249L18.8618 11.8893ZM8.75292 3.01164L8.75293 3.01164C8.85016 3.00941 8.95338 3.01987 9.06425 3.04719C10.52 3.41675 11.3702 4.99434 11.4117 6.53454L11.4119 6.54298L11.4124 6.55142C11.4384 7.07768 11.3164 7.66021 11.0505 8.11629C10.7939 8.55648 10.4235 8.85358 9.91919 8.93353C9.79462 8.95106 9.6712 8.94917 9.55456 8.92858C7.77806 8.40434 6.88883 6.34191 7.22597 4.56024L7.22601 4.56024L7.22746 4.55211C7.2923 4.18749 7.49192 3.78888 7.78558 3.48513C8.07645 3.18426 8.41471 3.0194 8.75292 3.01164ZM4.13071 9.24128L4.13123 9.24129C4.35417 9.24291 4.57224 9.29459 4.76437 9.39536L4.78185 9.40453L4.79979 9.41277C6.37176 10.1345 7.26012 11.9771 6.83337 13.4803C6.66409 14.0677 6.08116 14.4932 5.49982 14.4053C3.5036 14.0282 2.27855 11.7544 2.8745 10.0165C3.02689 9.5741 3.52757 9.23647 4.13071 9.24128ZM6.8749 19.3314L6.89249 19.2831L6.90333 19.2329C7.24275 17.6601 8.11924 16.1715 9.23588 14.8551C10.1837 13.8276 11.6804 13.1331 13.1305 13.1301C13.8318 13.1289 14.5091 13.2892 15.1103 13.6373L15.1103 13.6373L15.1179 13.6416C16.7501 14.5615 17.8462 16.1196 18.9626 17.7711C19.2348 18.2775 19.4893 18.7587 19.6372 19.2385C19.7801 19.7024 19.7997 20.0933 19.6748 20.4401C19.514 20.7317 19.2174 20.9337 18.8002 21.0228C18.3607 21.1166 17.8502 21.0664 17.424 20.896L17.4101 20.8905L17.396 20.8855C17.1456 20.7968 16.897 20.6994 16.634 20.5963C16.5694 20.571 16.504 20.5454 16.4375 20.5195C16.1071 20.3907 15.7562 20.2575 15.3947 20.145C14.6794 19.9225 13.883 19.7681 13.0178 19.8842C12.1086 19.9341 11.2666 20.2318 10.5412 20.4882C10.4896 20.5064 10.4385 20.5245 10.3881 20.5422C9.58031 20.8262 8.902 21.0418 8.19698 21.0237L8.18964 21.0235L8.18229 21.0235C7.22506 21.0176 6.61218 20.0525 6.8749 19.3314Z" stroke="black" stroke-width="1.5"/>
</g>
<defs>
<clipPath id="clip0_519_1598">
<rect width="21.8182" height="19.6364" fill="white" transform="translate(1.97327 2.18188)"/>
</clipPath>
</defs>
</svg>
