<svg width="13" height="13" viewBox="0 0 13 13" fill="none" xmlns="http://www.w3.org/2000/svg">
<g clip-path="url(#clip0_307_3655)">
<path fill-rule="evenodd" clip-rule="evenodd" d="M12.0565 0.408691H0.962144C0.750824 0.408691 0.565918 0.593597 0.565918 0.804918V11.8993C0.565918 12.1106 0.750824 12.2955 0.962144 12.2955H12.0565C12.2678 12.2955 12.4527 12.1106 12.4527 11.8993V0.804918C12.4527 0.593597 12.2678 0.408691 12.0565 0.408691ZM1.35837 1.20114H4.26403V4.1068H1.35837V1.20114ZM1.35837 4.89926H4.26403V7.80491H1.35837V4.89926ZM4.26403 11.503H1.35837V8.59737H4.26403V11.503ZM7.96214 11.503H5.05648V8.59737H7.96214V11.503ZM7.96214 7.80491H5.05648V4.89926H7.96214V7.80491ZM7.96214 4.1068H5.05648V1.20114H7.96214V4.1068ZM11.6603 11.503H8.75459V8.59737H11.6603V11.503ZM11.6603 7.80491H8.75459V4.89926H11.6603V7.80491ZM11.6603 4.1068H8.75459V1.20114H11.6603V4.1068Z" fill="#262626"/>
</g>
<defs>
<clipPath id="clip0_307_3655">
<rect width="12.6792" height="12.6792" fill="white" transform="translate(0.169922 0.0124512)"/>
</clipPath>
</defs>
</svg>
