<svg width="27" height="27" viewBox="0 0 27 27" fill="none" xmlns="http://www.w3.org/2000/svg">
<path d="M20.0428 21.357L20.8989 20.504C24.8599 20.6337 24.9208 20.4944 25.0948 20.0861L26.1831 17.4288L26.2639 17.1769L26.1755 16.9565C26.1288 16.8401 25.9852 16.4928 23.512 14.1275V12.8833C26.3657 10.1258 26.3048 9.98462 26.1422 9.58102L25.0587 6.89609C24.896 6.49344 24.8342 6.33601 20.9017 6.44383L20.0456 5.55648C20.134 4.24941 20.0891 2.93671 19.9115 1.6388L19.8012 1.38787L16.9721 0.14749C16.5555 -0.0433375 16.409 -0.112035 13.7379 2.80571L12.5374 2.78758C9.78738 -0.156879 9.65706 -0.103448 9.24517 0.0635256L6.61497 1.13025C6.20308 1.29722 6.05754 1.35638 6.21735 5.36375L5.36789 6.21293C1.4088 6.08316 1.34792 6.22438 1.17574 6.63084L0.0856124 9.28906L0 9.54381L0.0894173 9.76517C0.136028 9.87967 0.273959 10.2232 2.75291 12.5913V13.8317C-0.100832 16.5891 -0.0390011 16.7304 0.124613 17.1349L1.20713 19.8227C1.37265 20.2339 1.43163 20.3799 5.36313 20.2769L6.21925 21.169C6.13051 22.474 6.17418 23.7848 6.34957 25.081L6.45992 25.3338L9.307 26.5818C9.72079 26.7555 9.86443 26.8175 12.5279 23.9102L13.7284 23.9255C16.4823 26.8738 16.623 26.8165 17.0254 26.6534L19.6499 25.5895C20.0646 25.4244 20.2092 25.3662 20.0428 21.357ZM8.76289 15.1322C8.43095 14.2621 8.36261 13.313 8.56644 12.4041C8.77026 11.4951 9.23718 10.6668 9.90859 10.0231C10.58 9.3793 11.426 8.94878 12.3405 8.7855C13.2549 8.62223 14.1971 8.73348 15.0487 9.1053C15.9004 9.47712 16.6236 10.0929 17.1276 10.8755C17.6316 11.658 17.8939 12.5725 17.8818 13.504C17.8696 14.4356 17.5834 15.3428 17.059 16.1118C16.5347 16.8808 15.7957 17.4774 14.9346 17.8267C13.7597 18.2875 12.4507 18.2627 11.294 17.7577C10.1374 17.2527 9.22724 16.3087 8.76289 15.1322Z" fill="#40535B"/>
</svg>
