<?xml version="1.0" encoding="UTF-8" standalone="no"?>
<svg
   xmlns:dc="http://purl.org/dc/elements/1.1/"
   xmlns:cc="http://creativecommons.org/ns#"
   xmlns:rdf="http://www.w3.org/1999/02/22-rdf-syntax-ns#"
   xmlns:svg="http://www.w3.org/2000/svg"
   xmlns="http://www.w3.org/2000/svg"
   xmlns:sodipodi="http://sodipodi.sourceforge.net/DTD/sodipodi-0.dtd"
   xmlns:inkscape="http://www.inkscape.org/namespaces/inkscape"
   width="22.999603"
   height="23.000265"
   viewBox="0 0 22.999603 23.000265"
   fill="none"
   version="1.1"
   id="svg4"
   sodipodi:docname="adjunto.svg"
   inkscape:version="1.0.2 (e86c870879, 2021-01-15, custom)">
  <metadata
     id="metadata10">
    <rdf:RDF>
      <cc:Work
         rdf:about="">
        <dc:format>image/svg+xml</dc:format>
        <dc:type
           rdf:resource="http://purl.org/dc/dcmitype/StillImage" />
      </cc:Work>
    </rdf:RDF>
  </metadata>
  <defs
     id="defs8" />
  <sodipodi:namedview
     pagecolor="#ffffff"
     bordercolor="#666666"
     borderopacity="1"
     objecttolerance="10"
     gridtolerance="10"
     guidetolerance="10"
     inkscape:pageopacity="0"
     inkscape:pageshadow="2"
     inkscape:window-width="1280"
     inkscape:window-height="961"
     id="namedview6"
     showgrid="false"
     inkscape:zoom="31.956522"
     inkscape:cx="11.49978"
     inkscape:cy="11.5"
     inkscape:window-x="-8"
     inkscape:window-y="-8"
     inkscape:window-maximized="1"
     inkscape:current-layer="svg4" />
  <path
     id="path2"
     style="fill:#c877ef;fill-opacity:1"
     d="M 15.712671,0 C 13.847783,0 11.983527,0.71012537 10.560327,2.1308594 L 2.1306398,10.5625 c -2.84085307,2.8471 -2.84085307,7.459541 0,10.306641 2.84707,2.8415 7.4595706,2.8415 10.3066402,0 l 4.214844,-4.214844 c 1.2737,-1.9332 1.094084,-4.445478 -0.603516,-6.142578 -1.6915,-1.6914403 -4.102897,-1.7279459 -6.029297,-0.478516 L 7.2087648,12.84375 c -0.18587,0.1865 -0.3231263,0.359884 -0.4101563,0.521484 -0.24741,0.46 -0.099584,0.83991 0.4101563,1.34961 L 7.681421,15.1875 c 0.51595,0.5159 0.9026494,0.659356 1.3496094,0.410156 0.16224,-0.0871 0.3369475,-0.223056 0.5234375,-0.410156 l 2.8105461,-2.810547 c 0.5259,-0.4563 1.066372,-0.267512 1.576172,0.242188 0.5221,0.516 0.839688,1.131306 0.367188,1.691406 l -4.212891,4.214844 c -1.4981295,1.4981 -3.7679201,1.8524 -5.6191401,0 -1.66721,-1.6666 -1.49813,-4.122994 0,-5.621094 L 12.904077,4.4746094 c 1.4981,-1.49875 3.716341,-1.90219 5.619141,0 1.895899,1.89659 1.617396,4.0036668 0.466796,5.1542968 -0.7273,0.7272998 -0.647159,1.5788718 -0.193359,2.0761718 l 0.466797,0.466797 c 0.7093,0.7025 1.354581,0.483391 2.050781,-0.224609 2.3871,-2.8601404 2.238834,-7.1241266 -0.447265,-9.8164066 C 19.443117,0.71012537 17.577558,0 15.712671,0 Z" />
</svg>
