<svg width="25" height="24" viewBox="0 0 25 24" fill="none" xmlns="http://www.w3.org/2000/svg">
<path fill-rule="evenodd" clip-rule="evenodd" d="M12.2919 17.4C13.3274 17.4 14.1669 18.2059 14.1669 19.2C14.1669 20.1941 13.3274 21 12.2919 21C11.2563 21 10.4169 20.1941 10.4169 19.2C10.4169 18.2059 11.2563 17.4 12.2919 17.4ZM14.1669 11.9998C14.1669 11.0057 13.3274 10.1998 12.2919 10.1998C11.2563 10.1998 10.4169 11.0057 10.4169 11.9998C10.4169 12.9939 11.2563 13.7998 12.2919 13.7998C13.3274 13.7998 14.1669 12.9939 14.1669 11.9998ZM14.1669 4.79994C14.1669 3.80583 13.3274 2.99994 12.2919 2.99994C11.2563 2.99994 10.4169 3.80583 10.4169 4.79994C10.4169 5.79405 11.2563 6.59994 12.2919 6.59994C13.3274 6.59994 14.1669 5.79405 14.1669 4.79994Z" fill="black"/>
</svg>
