<?xml version="1.0" encoding="UTF-8" standalone="no"?>
<svg
   xmlns:dc="http://purl.org/dc/elements/1.1/"
   xmlns:cc="http://creativecommons.org/ns#"
   xmlns:rdf="http://www.w3.org/1999/02/22-rdf-syntax-ns#"
   xmlns:svg="http://www.w3.org/2000/svg"
   xmlns="http://www.w3.org/2000/svg"
   xmlns:sodipodi="http://sodipodi.sourceforge.net/DTD/sodipodi-0.dtd"
   xmlns:inkscape="http://www.inkscape.org/namespaces/inkscape"
   width="21.829149"
   height="19.560936"
   viewBox="0 0 21.829149 19.560936"
   fill="none"
   version="1.1"
   id="svg11"
   sodipodi:docname="patita_dislike_fill.svg"
   inkscape:version="1.0.2 (e86c870879, 2021-01-15, custom)">
  <metadata
     id="metadata15">
    <rdf:RDF>
      <cc:Work
         rdf:about="">
        <dc:format>image/svg+xml</dc:format>
        <dc:type
           rdf:resource="http://purl.org/dc/dcmitype/StillImage" />
        <dc:title></dc:title>
      </cc:Work>
    </rdf:RDF>
  </metadata>
  <sodipodi:namedview
     pagecolor="#ffffff"
     bordercolor="#666666"
     borderopacity="1"
     objecttolerance="10"
     gridtolerance="10"
     guidetolerance="10"
     inkscape:pageopacity="0"
     inkscape:pageshadow="2"
     inkscape:window-width="1280"
     inkscape:window-height="961"
     id="namedview13"
     showgrid="false"
     inkscape:zoom="21.655145"
     inkscape:cx="4.7555304"
     inkscape:cy="10.514854"
     inkscape:window-x="-8"
     inkscape:window-y="-8"
     inkscape:window-maximized="1"
     inkscape:current-layer="g4"
     inkscape:document-rotation="0" />
  <g
     clip-path="url(#clip0_519_1598)"
     id="g4"
     transform="rotate(180,11.896285,10.911149)">
    <path
       d="m 14.2078,6.04668 -0.003,0.02044 c -0.0871,0.59165 0.0118,1.27369 0.2979,1.82457 0.2781,0.53546 0.7106,0.91393 1.3065,1.02938 0.1205,0.02072 0.2635,0.0145 0.4187,-0.02256 1.6161,-0.52012 2.4418,-2.38203 2.181,-4.03695 L 18.4039,4.82998 18.4017,4.79808 C 18.3697,4.34942 18.1672,3.86144 17.8384,3.49501 16.420562,2.3995043 14.737478,3.3471713 14.2078,6.04668 Z m 0,0 0.0019,-0.02058 m 4.6521,5.8632 c 0.1676,-1.492 1.3234,-2.95315 2.8338,-3.06209 0.4318,0.0316 0.7711,0.26059 1.0111,0.61796 0.2563,0.38176 0.3723,0.87843 0.3238,1.31343 l -0.0033,0.0292 -9e-4,0.0294 c -0.0245,0.7468 -0.3396,1.5842 -0.8788,2.2306 -0.5267,0.6313 -1.2238,1.034 -2.018,1.0529 -0.4575,-0.0392 -0.808,-0.301 -1.0426,-0.7106 -0.2489,-0.4345 -0.3305,-0.9834 -0.2365,-1.4302 l 0.0074,-0.035 z M 8.75292,3.01164 h 10e-6 C 8.85016,3.00941 8.95338,3.01987 9.06425,3.04719 10.52,3.41675 11.3702,4.99434 11.4117,6.53454 l 2e-4,0.00844 5e-4,0.00844 c 0.026,0.52626 -0.096,1.10879 -0.3619,1.56487 C 10.7939,8.55648 10.4235,8.85358 9.91919,8.93353 9.79462,8.95106 9.6712,8.94917 9.55456,8.92858 7.77806,8.40434 6.88883,6.34191 7.22597,4.56024 h 4e-5 -4e-5 C 7.29081,4.19562 7.49043,3.79701 7.78409,3.49326 8.07496,3.19239 8.41471,3.0194 8.75292,3.01164 Z m -4.62221,6.22964 5.2e-4,10e-6 c 0.22294,0.00162 0.44101,0.0533 0.63314,0.15407 L 4.78185,9.40453 4.79979,9.41277 C 6.37176,10.1345 7.26012,11.9771 6.83337,13.4803 6.66409,14.0677 6.08116,14.4932 5.49982,14.4053 3.5036,14.0282 2.27855,11.7544 2.8745,10.0165 3.02689,9.5741 3.52757,9.23647 4.13071,9.24128 Z M 6.8749,19.3314 6.89249,19.2831 6.90333,19.2329 c 0.33942,-1.5728 1.21591,-3.0614 2.33255,-4.3778 0.94782,-1.0275 2.44452,-1.722 3.89462,-1.725 0.7013,-0.0012 1.3786,0.1591 1.9798,0.5072 v 0 l 0.0076,0.0043 c 1.6322,0.9199 2.7283,2.478 3.8447,4.1295 0.2722,0.5064 0.5267,0.9876 0.6746,1.4674 0.1429,0.4639 0.1625,0.8548 0.0376,1.2016 -0.1608,0.2916 -0.4574,0.4936 -0.8746,0.5827 -0.4395,0.0938 -0.95,0.0436 -1.3762,-0.1268 l -0.0139,-0.0055 -0.0141,-0.005 c -0.2504,-0.0887 -0.499,-0.1861 -0.762,-0.2892 -0.0646,-0.0253 -0.13,-0.0509 -0.1965,-0.0768 -0.3304,-0.1288 -0.6813,-0.262 -1.0428,-0.3745 -0.7153,-0.2225 -1.5117,-0.3769 -2.3769,-0.2608 -0.9092,0.0499 -1.7512,0.3476 -2.4766,0.604 -0.0516,0.0182 -0.1027,0.0363 -0.1531,0.054 -0.80779,0.284 -1.4861,0.4996 -2.19112,0.4815 l -0.00734,-2e-4 H 8.18229 C 7.22506,21.0176 6.61218,20.0525 6.8749,19.3314 Z"
       stroke="#000000"
       stroke-width="1.5"
       id="path2"
       sodipodi:nodetypes="ccccccccccccsccccccccccssscccccccccccsccscccccccccccsccccccccscccccccccc"
       style="fill:#c877ef;fill-opacity:1;stroke:#c877ef;stroke-opacity:1" />
  </g>
  <defs
     id="defs9">
    <clipPath
       id="clip0_519_1598">
      <rect
         width="21.818199"
         height="19.6364"
         fill="#ffffff"
         transform="translate(1.97327,2.18188)"
         id="rect6"
         x="0"
         y="0" />
    </clipPath>
  </defs>
</svg>
