<?xml version="1.0" encoding="UTF-8" standalone="no"?>
<svg
   xmlns:dc="http://purl.org/dc/elements/1.1/"
   xmlns:cc="http://creativecommons.org/ns#"
   xmlns:rdf="http://www.w3.org/1999/02/22-rdf-syntax-ns#"
   xmlns:svg="http://www.w3.org/2000/svg"
   xmlns="http://www.w3.org/2000/svg"
   xmlns:sodipodi="http://sodipodi.sourceforge.net/DTD/sodipodi-0.dtd"
   xmlns:inkscape="http://www.inkscape.org/namespaces/inkscape"
   version="1.1"
   id="svg2"
   width="399.88785"
   height="400.20694"
   viewBox="0 0 399.88785 400.20694"
   sodipodi:docname="publico.svg"
   inkscape:version="1.0.2 (e86c870879, 2021-01-15, custom)">
  <metadata
     id="metadata8">
    <rdf:RDF>
      <cc:Work
         rdf:about="">
        <dc:format>image/svg+xml</dc:format>
        <dc:type
           rdf:resource="http://purl.org/dc/dcmitype/StillImage" />
        <dc:title />
      </cc:Work>
    </rdf:RDF>
  </metadata>
  <defs
     id="defs6" />
  <sodipodi:namedview
     pagecolor="#ffffff"
     bordercolor="#666666"
     borderopacity="1"
     objecttolerance="10"
     gridtolerance="10"
     guidetolerance="10"
     inkscape:pageopacity="0"
     inkscape:pageshadow="2"
     inkscape:window-width="1280"
     inkscape:window-height="961"
     id="namedview4"
     showgrid="false"
     inkscape:zoom="0.91875"
     inkscape:cx="191.58025"
     inkscape:cy="183.52055"
     inkscape:window-x="-8"
     inkscape:window-y="-8"
     inkscape:window-maximized="1"
     inkscape:current-layer="g10"
     inkscape:document-rotation="0" />
  <g
     inkscape:groupmode="layer"
     inkscape:label="Image"
     id="g10"
     transform="translate(-2.9751476,-3.962447)">
    <path
       style="fill:#b5b5b5;stroke:none;fill-opacity:1"
       d="m 190.72109,4.7781189 c -42.131,5.5317731 -80.391,16.6819231 -114.000003,44.1898231 -20.7471,16.981 -37.9349,37.787796 -50.6914,61.385798 -51.9693,96.138 -12.5277,219.102 82.691403,270.691 37.576,20.359 81.982,26.981 124,21.024 99.154,-14.059 174.327,-106.02 169.961,-205.715 -3.973,-90.723 -70.663,-169.937198 -159.961,-187.8001681 -16.613,-3.323121 -35.067,-5.99878 -52,-3.775453 m 34,8.5756231 c -1.042,10.1157 -11.029,28.8224 -21,32.3866 -9.706,3.4694 -20.493,0.5744 -30,5.449 -6.639,3.4044 -9.681,9.3928 -11.997,16.1644 -1.269,3.7116 -2.2,10.021896 -6.136,11.914296 -4.162,2.0009 -8.318,-2.8957 -10.304,-5.9537 -5.913,-9.106496 -6.765,-16.921996 -15.563,-24.855696 -5.924,-5.3419 -15.242,-5.0883 -18,-13.1049 35.719,-20.8479 73.127,-22.10983 113,-22 m 122,64.999996 h 1 c 26.832,30.811002 36.707,64.413002 46,103.000002 -15.556,6.693 -20.945,-3.649 -33,-11.452 -2.049,-1.326 -10.757,-6.958 -12.387,-2.512 -1.366,3.725 7.137,9.139 9.387,11.119 8.709,7.668 19.198,14.767 16.66,27.844 -2.761,14.224 -26.026,4.634 -27.739,19.001 -0.544,4.569 6.055,7.907 9.079,10.155 6.444,4.79 11.811,10.249 10.89,18.844 -1.177,10.992 -20.329,13.04 -25.209,24.001 -6.635,14.899 -0.849,30.777 -4.362,46 -3.873,16.785 -24.838,28.409 -38.319,36.947 -4.375,2.771 -10.648,8.121 -15.956,8.511 -8.804,0.649 -2.223,-17.35 -1.044,-21.458 6.024,-20.991 -2.607,-35.363 -5.572,-56 -1.238,-8.622 0.611,-20.046 -3.081,-27.985 -3.326,-7.152 -11.706,-6.463 -18.347,-5.591 -10.79,1.417 -23.184,1.52 -33,-3.748 -39.384,-21.135 -12.171,-79.452 14,-98.248 10.727,-7.704 24.704,-14.046 38,-8.96 11.053,4.229 19.427,13.672 31,16.775 11.683,3.133 30.953,-0.118 36.079,-13.243 1.364,-3.494 -2.485,-5.801 -5.08,-7.175 -7.498,-3.971 -15.776,-4.374 -23.999,-4.034 -14.16,0.584 -21.995,-16.986 -37,-17.328 -10.175,-0.232 -16.415,9.301 -25,13.097 -5.577,2.466 -18.666,7.376 -22.821,0.293 -10.097,-17.211 22.671,-11.312 25.823,-17.171 1.583,-2.942 -1.788,-6.505 -3.376,-8.682 -5.579,-7.6452 -11.054,-10.0916 -18.607,-15.132702 -2.276,-1.5196 -4.94,-3.7963 -4.267,-6.8673 2.413,-11.0277 22.259,-10.047 29.158,-5.1458 3.598,2.5553 5.817,6.6189 10.091,8.2523 3.172,1.2122 7.905,1.2539 10.68,-0.9645 5.902,-4.7178 -3.353,-18.0198 -3.641,-24.141996 -0.667,-14.1899 16.843,-19.9075 28.96,-21.5771 20.163,-2.7784 25.56,47.227596 45,33.577096 M 86.721087,51.353742 c 4.8534,8.5338 16.358003,9.612 22.660003,17.0401 2.371,2.7957 6.261,9.106296 1.188,11.356496 -3.347,1.4847 -8.2118,0.8661 -11.848003,1.6072 -3.7433,0.763 -7.3194,2.0123 -11,2.9962 5.8759,11.3096 24.847003,7.605 32.396003,18.185202 7.738,10.8448 -11.777,14.0978 -18.396,8.8148 -1.3004,6.902 -1.3682,17.358 -6.419003,22.722 -3.2088,3.408 -8.5053,3.965 -12.581,5.911 -8.7777,4.192 -19.2868,12.722 -22.1998,22.367 -1.5118,5.005 -3.0393,14.179 -0.6212,18.999 3.2358,6.451 14.7851,12.347 7.017,20.567 -9.1203,9.651 -17.6392,-15.88 -23.2107,-20.146 -5.0218,-3.846 -12.9208,-2.305 -13.0231,5.156 -0.1375,10.024 16.2338,16.972 21.3858,24.424 3.8866,5.622 1.6206,15.041 6.8804,19.297 5.3358,4.318 11.7434,1.719 17.7716,2.086 4.6412,0.283 8.7282,3.707 12,6.71 12.784403,11.737 20.171003,28.537 34.000003,39.007 8.81,6.671 33.938,10.117 35.278,22.9 0.643,6.135 -6.777,11.896 -9.496,17 -2.616,4.908 -4.598,10.596 -8.311,14.815 -3.513,3.991 -8.579,5.964 -11.942,10.2 -6.661,8.392 -12.803,18.857 -18.529,27.985 -7.5476,-2.22 -21.321703,-9.353 -24.411303,-17.015 -3.4756,-8.619 -2.0555,-19.025 -5.2878,-27.985 -4.8098,-13.334 -17.5925,-20.94 -21.9529,-35 -3.9543,-12.751 1.9241,-25.382 -1.2508,-38 -2.3437,-9.315 -9.9694,-11.315 -15.6327,-18.015 -9.4602,-11.193 -18.8143,-25.119 -23.7662,-38.985 -6.2349,-17.459 -3.1778,-32.74 2.0216,-50 10.8777,-36.109 35.5579,-74.016502 67.2801,-94.999998 z"
       id="path837" />
  </g>
</svg>
