<?xml version="1.0" encoding="UTF-8" standalone="no"?>
<svg
   xmlns:dc="http://purl.org/dc/elements/1.1/"
   xmlns:cc="http://creativecommons.org/ns#"
   xmlns:rdf="http://www.w3.org/1999/02/22-rdf-syntax-ns#"
   xmlns:svg="http://www.w3.org/2000/svg"
   xmlns="http://www.w3.org/2000/svg"
   xmlns:sodipodi="http://sodipodi.sourceforge.net/DTD/sodipodi-0.dtd"
   xmlns:inkscape="http://www.inkscape.org/namespaces/inkscape"
   width="24"
   height="24"
   viewBox="0 0 24 24"
   fill="none"
   version="1.1"
   id="svg4"
   sodipodi:docname="salir.svg"
   inkscape:version="1.0.2 (e86c870879, 2021-01-15, custom)">
  <metadata
     id="metadata10">
    <rdf:RDF>
      <cc:Work
         rdf:about="">
        <dc:format>image/svg+xml</dc:format>
        <dc:type
           rdf:resource="http://purl.org/dc/dcmitype/StillImage" />
      </cc:Work>
    </rdf:RDF>
  </metadata>
  <defs
     id="defs8" />
  <sodipodi:namedview
     pagecolor="#ffffff"
     bordercolor="#666666"
     borderopacity="1"
     objecttolerance="10"
     gridtolerance="10"
     guidetolerance="10"
     inkscape:pageopacity="0"
     inkscape:pageshadow="2"
     inkscape:window-width="1280"
     inkscape:window-height="961"
     id="namedview6"
     showgrid="false"
     inkscape:zoom="30.625"
     inkscape:cx="12"
     inkscape:cy="12"
     inkscape:window-x="-8"
     inkscape:window-y="-8"
     inkscape:window-maximized="1"
     inkscape:current-layer="svg4" />
  <path
     fill-rule="evenodd"
     clip-rule="evenodd"
     d="M16.5712 3.25L7.42838 3.25229L7.42789 3.25229C5.75311 3.2538 4.39285 4.61145 4.39285 6.288V17.7109C4.39285 18.516 4.71269 19.2881 5.28199 19.8574C5.8513 20.4267 6.62345 20.7466 7.42857 20.7466H16.68C17.0942 20.7466 17.43 20.4108 17.43 19.9966C17.43 19.5824 17.0942 19.2466 16.68 19.2466H7.42857C7.02127 19.2466 6.63066 19.0848 6.34265 18.7968C6.05465 18.5088 5.89285 18.1182 5.89285 17.7109V6.288C5.89285 5.44117 6.58051 4.75314 7.42908 4.75229L7.42925 4.75229L16.5716 4.75C16.9858 4.7499 17.3215 4.41403 17.3214 3.99981C17.3213 3.5856 16.9855 3.2499 16.5712 3.25ZM16.1582 8.03152C16.4558 7.74338 16.9306 7.75102 17.2188 8.04858L20.5388 11.4772C20.645 11.5869 20.7112 11.721 20.7373 11.8611C20.7457 11.9061 20.7501 11.9525 20.7501 12C20.7501 12.2158 20.6589 12.4104 20.513 12.5472L17.2188 15.9492C16.9306 16.2468 16.4558 16.2544 16.1582 15.9662C15.8607 15.6781 15.853 15.2033 16.1412 14.9057L18.2286 12.75H9.71439C9.30017 12.75 8.96439 12.4142 8.96439 12C8.96439 11.5858 9.30017 11.25 9.71439 11.25H18.2308L16.1412 9.09204C15.853 8.79448 15.8607 8.31966 16.1582 8.03152Z"
     fill="black"
     id="path2"
     style="fill:#c877ef;fill-opacity:1" />
</svg>
