<svg width="23" height="23" viewBox="0 0 23 23" fill="none" xmlns="http://www.w3.org/2000/svg">
<path fill-rule="evenodd" clip-rule="evenodd" d="M6.79909 13.3652C6.55168 13.8252 6.69963 14.2044 7.20937 14.7141L7.68181 15.1866C8.19776 15.7025 8.58441 15.8461 9.03137 15.5969C9.19361 15.5098 9.36767 15.3737 9.55416 15.1866L12.3646 12.3768C12.8905 11.9205 13.4325 12.1095 13.9423 12.6192C14.4644 13.1352 14.7815 13.75 14.309 14.3101L10.0956 18.5254C8.59747 20.0235 6.32727 20.3778 4.47605 18.5254C2.80884 16.8588 2.97792 14.4033 4.47605 12.9052L12.9035 4.47465C14.4016 2.9759 16.6209 2.57246 18.5237 4.47465C20.4196 6.37124 20.1405 8.47857 18.9899 9.6292C18.2626 10.3565 18.3428 11.2081 18.7966 11.7054L19.2628 12.171C19.9721 12.8735 20.6186 12.6559 21.3148 11.9479C23.7019 9.08776 23.5533 4.82338 20.8672 2.1311C18.0195 -0.710368 13.407 -0.710368 10.5606 2.1311L2.13064 10.5616C-0.710213 13.4087 -0.710213 18.0218 2.13064 20.8689C4.97771 23.7104 9.59083 23.7104 12.4379 20.8689L16.6526 16.6536C17.9263 14.7204 17.7466 12.209 16.049 10.5119C14.3575 8.82046 11.9462 8.78317 10.0198 10.0326L7.20937 12.843C7.0235 13.0295 6.88612 13.2036 6.79909 13.3652V13.3652Z" fill="#C4C4C4"/>
</svg>