<svg width="24" height="24" viewBox="0 0 24 24" fill="none" xmlns="http://www.w3.org/2000/svg">
<path d="M1 5.4C1 4.23305 1.46357 3.11389 2.28873 2.28873C3.11389 1.46357 4.23305 1 5.4 1H18.6C19.767 1 20.8861 1.46357 21.7113 2.28873C22.5364 3.11389 23 4.23305 23 5.4V18.6C23 19.767 22.5364 20.8861 21.7113 21.7113C20.8861 22.5364 19.767 23 18.6 23H5.4C4.23305 23 3.11389 22.5364 2.28873 21.7113C1.46357 20.8861 1 19.767 1 18.6V5.4Z" stroke="#C4C4C4" stroke-width="2" stroke-linecap="round" stroke-linejoin="round"/>
<path d="M8.15039 10.8984C9.66917 10.8984 10.9004 9.66722 10.9004 8.14844C10.9004 6.62965 9.66917 5.39844 8.15039 5.39844C6.63161 5.39844 5.40039 6.62965 5.40039 8.14844C5.40039 9.66722 6.63161 10.8984 8.15039 10.8984Z" stroke="#C4C4C4" stroke-width="2" stroke-linecap="round" stroke-linejoin="round"/>
<path d="M14.779 12.6848L5.40039 23.0017H18.7467C19.8748 23.0017 20.9568 22.5535 21.7545 21.7558C22.5522 20.9581 23.0004 19.8761 23.0004 18.748V18.6017C23.0004 18.0891 22.8079 17.8922 22.4614 17.5127L18.0284 12.6782C17.8218 12.4528 17.5705 12.273 17.2905 12.1502C17.0105 12.0273 16.708 11.9642 16.4022 11.9648C16.0965 11.9655 15.7942 12.0298 15.5147 12.1538C15.2353 12.2777 14.9847 12.4586 14.779 12.6848V12.6848Z" stroke="#C4C4C4" stroke-width="2" stroke-linecap="round" stroke-linejoin="round"/>
</svg>