<svg width="24" height="24" viewBox="0 0 24 24" fill="none" xmlns="http://www.w3.org/2000/svg">
<path d="M24 3.42857V1.36972C24.0002 1.18978 23.9755 1.01156 23.9273 0.845282C23.8792 0.678998 23.8086 0.527913 23.7195 0.400678C23.6305 0.273443 23.5247 0.172559 23.4083 0.103805C23.2919 0.03505 23.1672 -0.000224551 23.0412 1.07556e-06H0.961201C0.835132 -0.000224188 0.710266 0.0350258 0.593733 0.103738C0.4772 0.172451 0.371282 0.273281 0.282027 0.400471C0.192771 0.52766 0.121925 0.678719 0.0735354 0.845023C0.0251453 1.01133 0.000158239 1.18962 7.51008e-07 1.36972V3.42857H2.4V6.85714H7.51008e-07V10.2857H2.4V13.7143H7.51008e-07V17.1429H2.4V20.5714H7.51008e-07V22.6269C-0.000157187 22.8072 0.0245972 22.9859 0.0728461 23.1526C0.121095 23.3193 0.19189 23.4708 0.281177 23.5983C0.370465 23.7259 0.476489 23.827 0.593179 23.8959C0.709868 23.9649 0.83493 24.0002 0.961201 24H23.0412C23.1673 23.9998 23.2921 23.9641 23.4085 23.895C23.5249 23.8258 23.6306 23.7246 23.7197 23.5971C23.8087 23.4696 23.8793 23.3183 23.9274 23.1518C23.9755 22.9853 24.0002 22.807 24 22.6269V20.5714H21.6V17.1429H24V13.7143H21.6V10.2857H24V6.85714H21.6V3.42857H24ZM9.6 17.1429V6.85714L15.6 12L9.6 17.1429Z" fill="#C4C4C4"/>
</svg>