<?xml version="1.0" encoding="UTF-8" standalone="no"?>
<svg
   xmlns:dc="http://purl.org/dc/elements/1.1/"
   xmlns:cc="http://creativecommons.org/ns#"
   xmlns:rdf="http://www.w3.org/1999/02/22-rdf-syntax-ns#"
   xmlns:svg="http://www.w3.org/2000/svg"
   xmlns="http://www.w3.org/2000/svg"
   xmlns:sodipodi="http://sodipodi.sourceforge.net/DTD/sodipodi-0.dtd"
   xmlns:inkscape="http://www.inkscape.org/namespaces/inkscape"
   width="215"
   height="57"
   viewBox="0 0 215 57"
   fill="none"
   version="1.1"
   id="svg4"
   sodipodi:docname="logo.svg"
   inkscape:version="1.0.2 (e86c870879, 2021-01-15, custom)">
  <metadata
     id="metadata10">
    <rdf:RDF>
      <cc:Work
         rdf:about="">
        <dc:format>image/svg+xml</dc:format>
        <dc:type
           rdf:resource="http://purl.org/dc/dcmitype/StillImage" />
      </cc:Work>
    </rdf:RDF>
  </metadata>
  <defs
     id="defs8" />
  <sodipodi:namedview
     pagecolor="#ffffff"
     bordercolor="#666666"
     borderopacity="1"
     objecttolerance="10"
     gridtolerance="10"
     guidetolerance="10"
     inkscape:pageopacity="0"
     inkscape:pageshadow="2"
     inkscape:window-width="1280"
     inkscape:window-height="961"
     id="namedview6"
     showgrid="false"
     inkscape:zoom="5.2325581"
     inkscape:cx="107.5"
     inkscape:cy="28.5"
     inkscape:window-x="-8"
     inkscape:window-y="-8"
     inkscape:window-maximized="1"
     inkscape:current-layer="svg4" />
  <path
     fill-rule="evenodd"
     clip-rule="evenodd"
     d="M74.5583 22.72V16.1205H77.5508C79.9199 16.1205 81.7813 15.5549 83.1351 14.4238C84.4977 13.2838 85.179 11.7653 85.179 9.86829C85.179 8.58579 84.8629 7.44133 84.2305 6.43493C83.6071 5.41961 82.7209 4.64032 81.572 4.09704C80.432 3.54485 79.1183 3.26875 77.631 3.26875H69.8692V22.72H74.5583ZM77.631 12.5001H74.5583V6.88915H77.6844C78.5305 6.89805 79.1985 7.17415 79.6883 7.71743C80.1782 8.26071 80.4231 8.98657 80.4231 9.895C80.4231 10.7233 80.1826 11.3645 79.7017 11.8188C79.2297 12.273 78.5394 12.5001 77.631 12.5001ZM86.8864 11.5115C86.3253 12.6337 86.0447 13.9162 86.0447 15.359L86.0581 16.1205C86.1561 18.2313 86.8285 19.9056 88.0754 21.1436C89.3222 22.3727 90.9743 22.9872 93.0317 22.9872C95.1692 22.9872 96.8614 22.3281 98.1082 21.01C99.364 19.683 99.9919 17.8928 99.9919 15.6395V15.4792C99.9919 13.1725 99.3685 11.3512 98.1216 10.0152C96.8747 8.6704 95.1692 7.99797 93.005 7.99797C91.5889 7.99797 90.3554 8.30079 89.3044 8.90641C88.2535 9.51204 87.4475 10.3804 86.8864 11.5115ZM91.1747 18.5786C90.7561 17.9552 90.5468 16.9755 90.5468 15.6395L90.5602 14.8246C90.6849 12.5891 91.4998 11.4714 93.005 11.4714C94.6615 11.4714 95.4898 12.7673 95.4898 15.359V15.8132C95.4542 18.2802 94.6348 19.5138 93.0317 19.5138C92.2123 19.5138 91.5933 19.202 91.1747 18.5786ZM108.553 12.2329L110.035 12.3398L110.116 8.15829C109.759 8.05141 109.341 7.99797 108.86 7.99797C107.506 7.99797 106.451 8.70602 105.694 10.1221L105.547 8.26516H101.325V22.72H105.827V13.5688C106.228 12.6782 107.137 12.2329 108.553 12.2329ZM116.886 8.26516V4.67149H112.384V8.26516H110.54V11.3913H112.384V18.5652C112.384 20.0526 112.754 21.1614 113.493 21.8917C114.232 22.622 115.377 22.9872 116.926 22.9872C117.808 22.9872 118.654 22.8581 119.465 22.5998V19.3802C119.162 19.4336 118.788 19.4603 118.342 19.4603C117.763 19.4603 117.376 19.3534 117.18 19.1397C116.984 18.9259 116.886 18.5474 116.886 18.0041V11.3913H119.264V8.26516H116.886ZM128.079 21.4241C128.203 21.9941 128.346 22.4261 128.506 22.72H133.008V22.4929C132.616 21.7893 132.412 20.774 132.394 19.447V13.0478C132.367 11.4803 131.819 10.2468 130.751 9.34727C129.682 8.44774 128.226 7.99797 126.382 7.99797C124.538 7.99797 123.02 8.43438 121.826 9.30719C120.642 10.18 120.05 11.3156 120.05 12.7138H124.552C124.552 11.6629 125.086 11.1374 126.155 11.1374C127.304 11.1374 127.878 11.8009 127.878 13.128V13.8895H126.489C124.28 13.8895 122.597 14.2902 121.439 15.0918C120.281 15.8934 119.702 17.0779 119.702 18.6454C119.702 19.8923 120.179 20.9298 121.132 21.7581C122.085 22.5775 123.243 22.9872 124.605 22.9872C126.093 22.9872 127.25 22.4662 128.079 21.4241ZM127.077 19.4202C126.712 19.6607 126.248 19.7809 125.687 19.7809C125.26 19.7809 124.908 19.6563 124.632 19.4069C124.356 19.1486 124.218 18.8146 124.218 18.4049C124.218 16.9977 125.002 16.2941 126.569 16.2941H127.878V18.6053C127.718 18.9081 127.451 19.1798 127.077 19.4202ZM134.448 22.72H138.964V2.2H134.448V22.72ZM148.11 9.97516C147.121 11.2933 146.627 13.0968 146.627 15.3857C146.627 17.8171 147.13 19.6919 148.136 21.01C149.143 22.3281 150.505 22.9872 152.224 22.9872C153.649 22.9872 154.825 22.3816 155.751 21.1703L155.978 22.72H160.026V2.2H155.511V9.52094C154.629 8.50563 153.543 7.99797 152.251 7.99797C150.479 7.99797 149.098 8.65704 148.11 9.97516ZM153.373 19.5138C151.877 19.5138 151.129 18.2313 151.129 15.6663L151.142 14.838C151.258 12.5936 152.011 11.4714 153.4 11.4714C154.398 11.4714 155.101 11.8989 155.511 12.7539V18.258C155.083 19.0952 154.371 19.5138 153.373 19.5138ZM163.51 21.01C164.882 22.3281 166.677 22.9872 168.894 22.9872C170.079 22.9872 171.183 22.7601 172.207 22.3059C173.24 21.8427 174.038 21.2238 174.599 20.4489L172.541 18.0175C171.74 19.015 170.626 19.5138 169.201 19.5138C168.338 19.5138 167.634 19.2822 167.091 18.8191C166.547 18.3559 166.196 17.7191 166.035 16.9087H174.986V15.1586C174.986 12.9053 174.398 11.1508 173.223 9.895C172.047 8.63032 170.444 7.99797 168.413 7.99797C166.97 7.99797 165.724 8.30969 164.673 8.93313C163.622 9.54766 162.82 10.4205 162.268 11.5516C161.725 12.6827 161.453 13.9874 161.453 15.4659V15.8399C161.453 17.9596 162.139 19.683 163.51 21.01ZM166.035 14.0898C166.285 12.3442 167.068 11.4714 168.387 11.4714C169.099 11.4714 169.647 11.6718 170.03 12.0726C170.413 12.4645 170.595 13.0211 170.577 13.7425V14.0898H166.035ZM176.359 22.72H180.875V2.2H176.359V22.72ZM69.8692 35.2688V54.72H76.2683C77.9516 54.7111 79.4746 54.3103 80.8372 53.5177C82.2088 52.7161 83.2687 51.6117 84.0168 50.2045C84.7738 48.7884 85.1523 47.1898 85.1523 45.4085V44.5134C85.1434 42.75 84.7515 41.1602 83.9767 39.7441C83.2108 38.3191 82.142 37.2192 80.7704 36.4444C79.3989 35.6606 77.8536 35.2688 76.1347 35.2688H69.8692ZM74.5583 51.113V38.8891H76.1347C77.5152 38.8891 78.5662 39.3656 79.2876 40.3186C80.009 41.2716 80.3697 42.6877 80.3697 44.5669V45.4085C80.3697 47.2966 80.009 48.7216 79.2876 49.6835C78.5662 50.6365 77.533 51.113 76.1882 51.113H74.5583ZM93.9268 44.2329L95.4097 44.3398L95.4898 40.1583C95.1336 40.0514 94.715 39.998 94.234 39.998C92.8803 39.998 91.8249 40.706 91.0679 42.1221L90.9209 40.2652H86.6993V54.72H91.2014V45.5688C91.6022 44.6782 92.5107 44.2329 93.9268 44.2329ZM98.5865 50.9927C98.1145 50.5652 97.5222 50.3515 96.8097 50.3515C96.0883 50.3515 95.4916 50.5652 95.0196 50.9927C94.5564 51.4202 94.3249 51.9591 94.3249 52.6092C94.3249 53.2594 94.5564 53.7982 95.0196 54.2257C95.4916 54.6532 96.0883 54.867 96.8097 54.867C97.5222 54.867 98.1145 54.6577 98.5865 54.2391C99.0585 53.8116 99.2946 53.2683 99.2946 52.6092C99.2946 51.9502 99.0585 51.4113 98.5865 50.9927ZM119.555 54.72H124.218V35.2688H119.555V42.9905H112.649V35.2688H107.959V54.72H112.649V46.5975H119.555V54.72ZM126.54 54.72H131.055V40.2652H126.54V54.72ZM126.967 34.9615C126.504 35.3712 126.272 35.8966 126.272 36.5379C126.272 37.1791 126.504 37.7046 126.967 38.1143C127.43 38.524 128.031 38.7288 128.771 38.7288C129.51 38.7288 130.111 38.524 130.574 38.1143C131.037 37.7046 131.269 37.1791 131.269 36.5379C131.269 35.8966 131.037 35.3712 130.574 34.9615C130.111 34.5518 129.51 34.347 128.771 34.347C128.031 34.347 127.43 34.5518 126.967 34.9615ZM145.107 53.0768C146.086 51.8032 146.576 49.9819 146.576 47.6128V47.3857C146.576 45.0434 146.086 43.2265 145.107 41.9351C144.127 40.6437 142.737 39.998 140.938 39.998C139.611 39.998 138.529 40.4745 137.692 41.4274V34.2H133.19V54.72H137.224L137.412 53.2371C138.311 54.4038 139.496 54.9872 140.965 54.9872C142.746 54.9872 144.127 54.3504 145.107 53.0768ZM141.499 44.3665C141.874 44.9543 142.061 45.9429 142.061 47.3323C142.061 48.5881 141.989 49.4698 141.847 49.9774C141.562 51.0106 140.889 51.5271 139.83 51.5271C138.788 51.5271 138.075 51.1441 137.692 50.3782V44.6337C138.084 43.8588 138.788 43.4714 139.803 43.4714C140.569 43.4714 141.134 43.7698 141.499 44.3665ZM159.839 53.0768C160.819 51.8032 161.309 49.9819 161.309 47.6128V47.3857C161.309 45.0434 160.819 43.2265 159.839 41.9351C158.86 40.6437 157.47 39.998 155.671 39.998C154.344 39.998 153.262 40.4745 152.425 41.4274V34.2H147.923V54.72H151.957L152.144 53.2371C153.044 54.4038 154.228 54.9872 155.698 54.9872C157.479 54.9872 158.86 54.3504 159.839 53.0768ZM156.232 44.3665C156.606 44.9543 156.793 45.9429 156.793 47.3323C156.793 48.5881 156.722 49.4698 156.58 49.9774C156.295 51.0106 155.622 51.5271 154.562 51.5271C153.52 51.5271 152.808 51.1441 152.425 50.3782V44.6337C152.817 43.8588 153.52 43.4714 154.536 43.4714C155.301 43.4714 155.867 43.7698 156.232 44.3665ZM164.232 53.01C165.603 54.3281 167.398 54.9872 169.616 54.9872C170.8 54.9872 171.905 54.7601 172.929 54.3059C173.962 53.8427 174.759 53.2238 175.32 52.4489L173.263 50.0175C172.461 51.015 171.348 51.5138 169.923 51.5138C169.059 51.5138 168.355 51.2822 167.812 50.8191C167.269 50.3559 166.917 49.7191 166.757 48.9087H175.708V47.1586C175.708 44.9053 175.12 43.1508 173.944 41.895C172.768 40.6303 171.165 39.998 169.135 39.998C167.692 39.998 166.445 40.3097 165.394 40.9331C164.343 41.5477 163.542 42.4205 162.989 43.5516C162.446 44.6827 162.174 45.9874 162.174 47.4659V47.8399C162.174 49.9596 162.86 51.683 164.232 53.01ZM166.757 46.0898C167.006 44.3442 167.79 43.4714 169.108 43.4714C169.82 43.4714 170.368 43.6718 170.751 44.0726C171.134 44.4645 171.317 45.0211 171.299 45.7425V46.0898H166.757ZM184.108 44.2329L185.591 44.3398L185.671 40.1583C185.315 40.0514 184.896 39.998 184.415 39.998C183.061 39.998 182.006 40.706 181.249 42.1221L181.102 40.2652H176.88V54.72H181.383V45.5688C181.783 44.6782 182.692 44.2329 184.108 44.2329ZM192.441 40.2652V36.6715H187.939V40.2652H186.096V43.3913H187.939V50.5652C187.939 52.0526 188.309 53.1614 189.048 53.8917C189.787 54.622 190.932 54.9872 192.482 54.9872C193.363 54.9872 194.209 54.8581 195.02 54.5998V51.3802C194.717 51.4336 194.343 51.4603 193.898 51.4603C193.319 51.4603 192.931 51.3534 192.735 51.1397C192.539 50.9259 192.441 50.5474 192.441 50.0041V43.3913H194.819V40.2652H192.441ZM48.603 9.1344C48.7009 9.12684 48.7999 9.1222 48.8957 9.12099C51.8723 9.08353 53.9546 12.0473 54.1385 14.7732C54.7684 18.9927 52.8177 24.0876 48.4572 25.5302C47.9437 25.6676 47.3987 25.7127 46.8732 25.6139C43.2525 24.884 41.799 20.7034 42.2527 17.4494C42.5628 13.864 44.706 9.7981 48.603 9.1344ZM27.6775 14.0583C28.0616 11.7789 29.9492 9.35409 32.3731 9.2954C32.7191 9.28702 33.0748 9.32729 33.4404 9.42292C37.4364 10.4904 39.436 14.8804 39.5328 18.677C39.6677 21.5556 38.3024 25.1202 35.0788 25.6504C34.6273 25.7191 34.166 25.7094 33.7189 25.6139C28.9502 24.1853 26.868 18.5743 27.6775 14.0583ZM51.9789 30.35C52.389 26.4967 55.2634 22.3697 59.4552 22.1218C62.4851 22.271 64.0909 25.535 63.807 28.2237C63.6808 32.2895 60.6226 37.0144 56.1414 37.0691C52.9265 36.8469 51.4251 33.1289 51.9789 30.35ZM18.6406 25.8656C19.2235 24.0774 20.9775 23.0234 22.7611 23.0384C23.4591 23.0438 24.1631 23.2145 24.801 23.5676C28.7168 25.4652 31.0303 30.3189 29.9043 34.4995C29.3723 36.4541 27.4889 38.078 25.345 37.7163C20.2082 36.7106 17.0857 30.6505 18.6406 25.8656ZM32.2436 35.9818C34.5076 33.3757 38.0587 31.6251 41.5553 31.6176C43.2634 31.6144 44.9573 32.0276 46.4815 32.9593C50.285 35.2219 52.7709 39.0301 55.0904 42.6537L55.1011 42.6746C56.2358 44.9019 57.5974 47.5742 56.6679 50.079C55.4821 52.5456 52.2726 52.9212 49.9499 51.9413C49.3996 51.7356 48.8498 51.5082 48.2978 51.2798C46.1126 50.3757 43.8928 49.4573 41.4705 49.8214C39.7814 49.9066 38.2007 50.4951 36.6237 51.0821C34.8618 51.738 33.1048 52.3921 31.2068 52.3406C28.2169 52.3212 26.0591 49.1452 27.0112 46.3867C27.7948 42.5539 29.7979 39.0194 32.2436 35.9818Z"
     fill="black"
     id="path2"
     style="fill:#111111;fill-opacity:1" />
</svg>
